<svg width="133" height="64" viewBox="0 0 133 64" fill="none" xmlns="http://www.w3.org/2000/svg">
<path d="M65.3299 0V3.44161C63.3716 3.57626 61.462 4.1003 59.7176 4.98172C57.6447 3.92186 55.3407 3.36838 53.0021 3.36847V5.584C54.5324 5.58179 56.0497 5.85899 57.4761 6.40138C55.7682 7.70155 54.3797 9.36003 53.413 11.2548C52.4463 13.1496 51.9259 15.2324 51.8902 17.35H49.6927V17.8748H51.8902C51.9307 19.9943 52.4539 22.0782 53.4218 23.9746C54.3897 25.871 55.7779 27.5319 57.4849 28.8364C56.057 29.3855 54.5363 29.6672 53.0021 29.6667V31.8779C55.3418 31.8783 57.6465 31.3216 59.7176 30.256C61.4581 31.144 63.3642 31.6781 65.3211 31.8263V35.2249H67.5713V31.8263C69.5281 31.6837 71.4348 31.1523 73.1749 30.2646C75.2473 31.3258 77.5516 31.8794 79.8904 31.8779V29.6667C78.3612 29.668 76.8452 29.3893 75.4207 28.845C77.1317 27.5409 78.5235 25.8792 79.4945 23.9813C80.4655 22.0834 80.9911 19.9971 81.0331 17.8748H83.2305V17.35H81.0331C80.9959 15.2317 80.474 13.1486 79.5058 11.2538C78.5376 9.35905 77.1476 7.7009 75.4383 6.40138C76.8577 5.86093 78.3674 5.58376 79.8904 5.584V3.36847C77.55 3.36419 75.2432 3.91321 73.1661 4.96882C71.4281 4.08444 69.5247 3.55464 67.5713 3.41149V0H65.3299ZM65.3299 5.62702V9.99356C64.6662 8.96959 63.8716 8.03279 62.9654 7.20587C63.3419 6.71305 63.7453 6.24057 64.174 5.7905C64.5562 5.71648 64.942 5.66191 65.3299 5.62702ZM67.5801 5.62702C67.9828 5.66447 68.3832 5.7219 68.7799 5.7991C69.2003 6.24147 69.5964 6.70531 69.9666 7.18866C69.0526 8.01737 68.2506 8.95709 67.5801 9.98496V5.62702ZM63.3082 5.97979C63.0577 6.27233 62.816 6.56916 62.5831 6.8746C62.3897 6.71113 62.1919 6.55625 61.9898 6.40138C62.4205 6.2335 62.8607 6.08986 63.3082 5.97118V5.97979ZM69.637 5.97979C70.076 6.08896 70.5088 6.22107 70.9335 6.37557C70.7357 6.52614 70.5379 6.68102 70.3489 6.84019C70.1248 6.54336 69.8787 6.25942 69.637 5.97979ZM59.7176 7.52852C60.2794 7.88853 60.8113 8.2913 61.3085 8.73308C61.0273 9.2149 60.768 9.71394 60.5306 10.2173H56.729C57.5692 9.16793 58.5787 8.25976 59.7176 7.52852ZM73.1881 7.52852C74.332 8.25821 75.346 9.1665 76.1898 10.2173H72.397C72.1553 9.70534 71.8916 9.1977 71.6059 8.71157C72.1013 8.2778 72.6303 7.88227 73.1881 7.52852ZM71.2103 9.07723C71.4257 9.45151 71.6279 9.83009 71.8125 10.2173H70.1775C70.4981 9.81734 70.843 9.43663 71.2103 9.07723ZM61.7041 9.09875C62.0641 9.451 62.4017 9.82455 62.7149 10.2173H61.1108C61.2954 9.8387 61.4975 9.46442 61.7041 9.09875ZM56.3203 10.755H60.2757C59.3867 12.8465 58.9138 15.0849 58.8825 17.35H54.1448C54.1956 14.9874 54.9602 12.6926 56.3422 10.755H56.3203ZM60.869 10.755H63.1236C64.5073 12.6918 65.2722 14.9871 65.3211 17.35H59.4627C59.4922 15.0826 59.9729 12.8425 60.8778 10.755H60.869ZM69.76 10.755H72.0674C72.9764 12.8412 73.4573 15.0821 73.4825 17.35H67.5801C67.6312 14.9875 68.3958 12.6927 69.7776 10.755H69.76ZM72.6255 10.755H76.581C77.9642 12.692 78.729 14.9872 78.7784 17.35H74.0319C74.0031 15.0842 73.5286 12.8451 72.6343 10.755H72.6255ZM54.136 17.8748H58.9045C58.9349 20.1441 59.4124 22.3863 60.3109 24.4784H56.3334C54.9488 22.5389 54.184 20.2405 54.136 17.8748ZM59.4539 17.8748H65.3123C65.2555 20.2391 64.4915 22.535 63.1149 24.4784H60.891C59.9739 22.3909 59.4856 20.147 59.4539 17.8748ZM67.5713 17.8748H73.4825C73.4508 20.147 72.9625 22.3909 72.0454 24.4784H69.7688C68.388 22.5371 67.6235 20.2398 67.5713 17.8748ZM74.0231 17.8748H78.7784C78.7299 20.2404 77.9651 22.5387 76.581 24.4784H72.6255C73.5194 22.3849 73.9967 20.1436 74.0319 17.8748H74.0231ZM56.7378 25.0076H60.5482C60.7855 25.5109 61.0492 26.0013 61.3305 26.4789C60.8316 26.9306 60.295 27.3407 59.7263 27.7049C58.5862 26.9718 57.5766 26.0606 56.7378 25.0076ZM61.1327 25.0076H62.7149C62.4022 25.3955 62.0677 25.766 61.7129 26.1175C61.5063 25.7561 61.3129 25.3819 61.1327 25.0076ZM70.1731 25.0076H71.8125C71.6235 25.3948 71.4213 25.7776 71.206 26.1476C70.8386 25.7882 70.4938 25.4075 70.1731 25.0076ZM72.3926 25.0076H76.1854C75.3433 26.0659 74.3292 26.9816 73.1837 27.7179C72.6245 27.3581 72.0954 26.9553 71.6015 26.5133C71.8912 26.0249 72.1553 25.5224 72.3926 25.0076ZM65.3299 25.2227V29.6107C64.9607 29.5806 64.5916 29.5247 64.2312 29.4602C63.7866 28.9954 63.3684 28.5071 62.9786 27.9975C63.8791 27.1704 64.6692 26.2352 65.3299 25.2141V25.2227ZM67.5801 25.2442C68.2467 26.2649 69.041 27.1999 69.9446 28.0276C69.5684 28.522 69.1649 28.9959 68.736 29.4473C68.358 29.5161 67.9713 29.572 67.5801 29.6064V25.2442ZM62.5919 28.3416C62.8424 28.6643 63.1061 28.9783 63.3742 29.2881C62.9004 29.1622 62.4338 29.0114 61.9766 28.8364C62.1875 28.6729 62.3941 28.5137 62.5919 28.3416ZM70.3402 28.3632C70.5335 28.5266 70.7401 28.6815 70.9423 28.8364C70.5019 29.0067 70.0513 29.1504 69.593 29.2666C69.8523 28.974 70.0984 28.6643 70.3402 28.3545V28.3632Z" fill="white"/>
<path d="M0.0219828 44.6893L3.1292 44.5C3.16118 44.9045 3.30223 45.2934 3.53794 45.6271C3.71206 45.8351 3.93355 46.0003 4.18466 46.1094C4.43576 46.2185 4.70948 46.2684 4.98387 46.2552C5.37023 46.2794 5.75255 46.1664 6.06064 45.9369C6.17591 45.8479 6.2696 45.735 6.33496 45.6063C6.40031 45.4776 6.4357 45.3363 6.43859 45.1926C6.43632 45.0547 6.40329 44.919 6.3418 44.7949C6.2803 44.6708 6.19184 44.5613 6.0826 44.4742C5.57505 44.159 5.00382 43.955 4.40813 43.8762C2.97538 43.5622 1.95575 43.1406 1.33167 42.62C1.0343 42.3767 0.796874 42.0709 0.637071 41.7253C0.477269 41.3796 0.399212 41.0032 0.408727 40.6239C0.410918 40.0884 0.576182 39.5656 0.883389 39.1225C1.23358 38.6218 1.72759 38.2341 2.30295 38.0083C3.13243 37.7049 4.01565 37.5674 4.90036 37.6039C6.24961 37.6039 7.28242 37.8491 7.97683 38.3395C8.34714 38.6187 8.65182 38.9726 8.87021 39.3771C9.08859 39.7816 9.21558 40.2274 9.24257 40.6841L6.16611 40.8605C6.12616 40.4723 5.94342 40.1114 5.65191 39.8452C5.33919 39.6182 4.9551 39.5056 4.56636 39.5269C4.2534 39.5022 3.94171 39.5876 3.68737 39.7678C3.59671 39.8344 3.52324 39.9208 3.47286 40.0202C3.42249 40.1195 3.39661 40.2291 3.3973 40.34C3.40334 40.4245 3.42808 40.5068 3.46982 40.5811C3.51156 40.6554 3.56929 40.7199 3.63902 40.7702C3.97093 40.9743 4.34444 41.105 4.73337 41.1531C5.79165 41.3366 6.82423 41.6412 7.80983 42.0608C8.35982 42.3118 8.82605 42.71 9.15468 43.2094C9.44557 43.6676 9.59795 44.1971 9.59418 44.7366C9.59708 45.3893 9.39956 46.0278 9.02722 46.5693C8.64349 47.1345 8.09761 47.576 7.45823 47.8384C6.64895 48.1505 5.78289 48.2969 4.91355 48.2686C3.11601 48.2686 1.86785 47.933 1.17784 47.2533C0.476738 46.5623 0.0578424 45.6443 0 44.6721L0.0219828 44.6893Z" fill="white"/>
<path d="M11.0526 37.7844H14.05V43.1146L16.2474 40.628H19.8601L17.1132 43.2523L20.0139 48.1092H16.7133L15.1575 45.0978L14.05 46.1561V48.1092H11.0526V37.7844Z" fill="white"/>
<path d="M21.0023 37.7844H23.9381V39.7332H21.0023V37.7844ZM21.0023 40.628H23.9381V48.1092H21.0023V40.628Z" fill="white"/>
<path d="M25.8239 50.9618V40.637H28.5663V41.7426C28.8478 41.3627 29.2033 41.041 29.6123 40.7962C30.0523 40.5739 30.5411 40.4602 31.0363 40.4649C31.4997 40.4453 31.9608 40.5407 32.3765 40.7423C32.7922 40.9439 33.149 41.245 33.4139 41.6179C33.9972 42.4535 34.2914 43.4502 34.2534 44.4615C34.2534 45.7091 33.9486 46.6613 33.3392 47.318C33.0498 47.6375 32.6926 47.8913 32.2925 48.0615C31.8924 48.2316 31.4591 48.3141 31.0231 48.3032C30.5991 48.307 30.1784 48.2311 29.7837 48.0795C29.4059 47.926 29.0647 47.6975 28.7816 47.4084V50.9833H25.8239V50.9618ZM28.7641 44.3884C28.7241 44.8594 28.8599 45.3286 29.1464 45.7091C29.2641 45.8474 29.4122 45.9579 29.5796 46.0324C29.747 46.1069 29.9295 46.1434 30.1133 46.1393C30.2808 46.1393 30.4459 46.1003 30.5949 46.0255C30.7439 45.9507 30.8726 45.8422 30.9703 45.7091C31.2418 45.2922 31.3639 44.7989 31.3175 44.3066C31.3581 43.832 31.2309 43.3581 30.9571 42.9644C30.855 42.8306 30.7224 42.722 30.5698 42.6473C30.4171 42.5726 30.2488 42.5339 30.0782 42.5342C29.8983 42.5311 29.7201 42.5683 29.5571 42.6428C29.3941 42.7174 29.2506 42.8274 29.1376 42.9644C28.8511 43.3755 28.7191 43.8711 28.7641 44.3668V44.3884Z" fill="white"/>
<path d="M35.137 46.0357L38.0464 45.7647C38.1166 46.0588 38.2944 46.3175 38.5463 46.4919C38.7981 46.6663 39.1066 46.7443 39.4132 46.7112C39.736 46.7313 40.0563 46.645 40.323 46.4659C40.4011 46.4169 40.4654 46.3495 40.5099 46.2698C40.5545 46.1901 40.5779 46.1008 40.5779 46.0099C40.5768 45.9069 40.5451 45.8065 40.4865 45.7209C40.428 45.6353 40.3452 45.5683 40.2483 45.5281C39.8391 45.3878 39.4165 45.2884 38.9869 45.2313C38.268 45.1302 37.5593 44.969 36.8686 44.7494C36.4672 44.5986 36.1192 44.3371 35.8665 43.9966C35.5962 43.6513 35.4522 43.2271 35.4578 42.792C35.445 42.3247 35.6006 41.8678 35.8973 41.5014C36.2147 41.1272 36.6336 40.8483 37.1059 40.697C37.7767 40.4999 38.4759 40.4113 39.1759 40.4345C39.8547 40.4094 40.5337 40.4775 41.1932 40.6367C41.6025 40.7596 41.9751 40.9781 42.2787 41.2734C42.6 41.6073 42.8469 42.0028 43.0039 42.435L40.2219 42.706C40.1714 42.4938 40.0432 42.307 39.8615 42.1811C39.6146 42.0247 39.3249 41.9452 39.0309 41.9531C38.776 41.9327 38.5212 41.9946 38.3057 42.1295C38.2351 42.1776 38.1777 42.2421 38.1386 42.3171C38.0995 42.3922 38.0799 42.4755 38.0816 42.5597C38.0757 42.6519 38.1003 42.7436 38.1517 42.8211C38.2032 42.8986 38.2787 42.9577 38.3672 42.9899C38.7711 43.1295 39.1925 43.2149 39.6198 43.2437C40.3695 43.2985 41.1084 43.4504 41.8173 43.6954C42.2568 43.86 42.6373 44.1472 42.9116 44.5214C43.1585 44.8653 43.2905 45.2756 43.2896 45.6959C43.2847 46.1466 43.1457 46.5861 42.8896 46.9607C42.5789 47.4028 42.1394 47.7431 41.6283 47.9372C40.8793 48.2072 40.0833 48.33 39.2858 48.2986C37.8882 48.2986 36.8949 48.105 36.2972 47.7135C35.7095 47.3261 35.3008 46.7282 35.1589 46.0487L35.137 46.0357Z" fill="white"/>
<path d="M44.8936 37.4746H45.9001V43.5361L49.5435 40.4387H51.0202L46.7087 44.104L51.2707 48.1092H49.8379L45.8825 44.6676V48.1092H44.876L44.8936 37.4746Z" fill="white"/>
<path d="M56.0216 40.2454C56.5872 40.2334 57.1486 40.3428 57.6664 40.5657C58.1842 40.7887 58.6458 41.1198 59.019 41.536C59.7291 42.305 60.1171 43.3076 60.1057 44.3441C60.0943 45.3806 59.6843 46.3748 58.9574 47.1286C58.5722 47.5088 58.1138 47.8106 57.6088 48.0166C57.1038 48.2225 56.5621 48.3285 56.015 48.3285C55.468 48.3285 54.9263 48.2225 54.4213 48.0166C53.9163 47.8106 53.4579 47.5088 53.0726 47.1286C52.3435 46.3757 51.9324 45.3807 51.9218 44.3433C51.9112 43.306 52.3019 42.3031 53.0155 41.536C53.3898 41.119 53.8529 40.7873 54.3723 40.5643C54.8917 40.3413 55.4546 40.2325 56.0216 40.2454ZM56.0216 41.2091C55.6165 41.2044 55.2148 41.2828 54.8424 41.4391C54.47 41.5954 54.1351 41.8263 53.8593 42.1168C53.5672 42.4061 53.337 42.7495 53.1823 43.127C53.0276 43.5045 52.9514 43.9084 52.9583 44.3151C52.9549 44.8593 53.0974 45.3948 53.3715 45.8681C53.6309 46.3311 54.0156 46.7151 54.4834 46.9781C54.9537 47.2346 55.4832 47.3693 56.0216 47.3693C56.56 47.3693 57.0895 47.2346 57.5599 46.9781C58.0267 46.7139 58.4111 46.3302 58.6718 45.8681C58.9438 45.3939 59.0861 44.859 59.0849 44.3151C59.0932 43.9075 59.0168 43.5025 58.8604 43.1246C58.7041 42.7467 58.4709 42.4039 58.1751 42.1168C57.9005 41.8271 57.5671 41.5968 57.1963 41.4405C56.8254 41.2842 56.4254 41.2054 56.0216 41.2091Z" fill="white"/>
<path d="M61.9591 40.4387H62.9699V41.7638C63.2552 41.3409 63.6226 40.9769 64.0511 40.6926C64.5371 40.4082 65.0934 40.2594 65.6596 40.2624C66.0318 40.26 66.4003 40.3348 66.7408 40.4818C67.0612 40.6119 67.348 40.8103 67.5802 41.0625C67.8345 41.3708 68.0255 41.7243 68.1428 42.1036C68.4352 41.5486 68.8679 41.0762 69.3997 40.7313C69.8839 40.4239 70.4489 40.261 71.0259 40.2624C71.5348 40.2535 72.035 40.3928 72.463 40.6624C72.8811 40.9351 73.2033 41.3272 73.386 41.7853C73.6214 42.4779 73.7242 43.2071 73.6892 43.9363V48.1092H72.6564V43.9234C72.6874 43.3529 72.6281 42.7811 72.4806 42.2284C72.3615 41.9226 72.146 41.6619 71.8653 41.4841C71.5538 41.2925 71.1915 41.1953 70.8237 41.2045C70.3488 41.2078 69.8872 41.3584 69.5052 41.6347C69.1039 41.9162 68.7978 42.3087 68.6262 42.7618C68.4022 43.526 68.3087 44.321 68.3494 45.115V48.1264H67.3429V44.1987C67.3732 43.5657 67.3141 42.9316 67.1671 42.3144C67.0517 41.9917 66.8347 41.713 66.5474 41.5185C66.2385 41.3161 65.8731 41.2124 65.5014 41.2217C65.029 41.2191 64.5677 41.3621 64.1829 41.6304C63.7774 41.9053 63.4639 42.2915 63.282 42.7403C63.0516 43.434 62.9518 44.1628 62.9875 44.8913V48.1092H61.9591V40.4387Z" fill="white"/>
<path d="M75.8249 40.4386H76.8313V41.8497C77.1884 41.3493 77.6593 40.937 78.2069 40.6451C78.7433 40.3744 79.3395 40.237 79.943 40.245C80.4768 40.2374 81.0064 40.3378 81.4988 40.5399C81.9911 40.742 82.4355 41.0414 82.8041 41.4195C83.1893 41.7878 83.4936 42.2292 83.6984 42.7167C83.9032 43.2042 84.0042 43.7275 83.9951 44.2545C84.0053 44.7867 83.9059 45.3154 83.7028 45.8092C83.4997 46.3029 83.197 46.7515 82.8128 47.1283C82.2351 47.7144 81.4832 48.1072 80.6641 48.2509C79.8451 48.3945 79.0006 48.2817 78.2509 47.9285C77.7004 47.6533 77.2163 47.2661 76.8313 46.7927V50.9184H75.8249V40.4386ZM79.8638 41.2001C79.4543 41.1924 79.0475 41.268 78.6692 41.422C78.291 41.576 77.9495 41.8051 77.6664 42.0949C77.3747 42.3879 77.1465 42.7356 76.9954 43.117C76.8444 43.4985 76.7736 43.9059 76.7874 44.3148C76.7799 44.8632 76.9177 45.4042 77.1873 45.885C77.4548 46.3511 77.8508 46.7342 78.33 46.9906C78.8075 47.2651 79.3497 47.4133 79.9034 47.4208C80.4437 47.4167 80.9726 47.2679 81.4328 46.9906C81.9117 46.7141 82.3051 46.3156 82.5711 45.8377C82.8489 45.3676 82.9952 44.8341 82.9952 44.2911C82.9952 43.748 82.8489 43.2146 82.5711 42.7445C82.3064 42.2752 81.9172 41.8844 81.4446 41.6134C80.972 41.3423 80.4335 41.201 79.8858 41.2044L79.8638 41.2001Z" fill="white"/>
<path d="M92.4775 45.5624L93.3301 45.9926C93.0861 46.4741 92.759 46.9107 92.3633 47.2832C92.0028 47.6058 91.5839 47.8596 91.1283 48.0318C90.6333 48.2105 90.1088 48.298 89.5812 48.2899C89.0185 48.3194 88.4563 48.2241 87.9365 48.011C87.4167 47.798 86.9528 47.4727 86.5795 47.0595C85.8801 46.296 85.4949 45.3058 85.4983 44.2804C85.4926 43.343 85.8152 42.432 86.4125 41.6992C86.7746 41.2313 87.2463 40.8554 87.7878 40.6031C88.3293 40.3508 88.9248 40.2295 89.5241 40.2494C90.1396 40.2296 90.7511 40.3539 91.3076 40.6121C91.8641 40.8702 92.3496 41.2548 92.7236 41.7336C93.314 42.4845 93.6242 43.4106 93.6026 44.3579H86.5267C86.5174 45.1719 86.8327 45.9575 87.4057 46.5476C87.6733 46.8254 87.9972 47.0455 88.3567 47.1937C88.7162 47.3418 89.1033 47.4148 89.4933 47.408C89.8911 47.4082 90.2856 47.3383 90.658 47.2015C91.0111 47.0823 91.3378 46.8983 91.6205 46.6594C91.9609 46.3412 92.2498 45.9742 92.4775 45.571V45.5624ZM92.4775 43.5017C92.3775 43.0446 92.1765 42.6143 91.8886 42.2413C91.6138 41.9133 91.2647 41.6526 90.869 41.4798C90.4563 41.2905 90.0062 41.1921 89.5505 41.1916C88.8199 41.1771 88.1112 41.4355 87.5683 41.9143C87.1145 42.3474 86.7959 42.898 86.6498 43.5017H92.4775Z" fill="white"/>
<path d="M96.345 37.5908H97.3558V40.4387H98.9512V41.2991H97.3558V48.1092H96.345V41.2906H94.9694V40.4302H96.345V37.5908Z" fill="white"/>
<path d="M108.277 40.4389V48.1094H107.288V46.7886C106.901 47.2612 106.415 47.6482 105.864 47.9244C105.112 48.2741 104.266 48.385 103.446 48.2416C102.626 48.0981 101.872 47.7075 101.289 47.1242C100.906 46.7473 100.604 46.2985 100.401 45.8047C100.199 45.311 100.1 44.7824 100.111 44.2505C100.103 43.7239 100.204 43.2012 100.408 42.7139C100.612 42.2266 100.915 41.7849 101.298 41.4154C101.668 41.0377 102.113 40.7384 102.606 40.5364C103.099 40.3343 103.629 40.2338 104.164 40.241C104.774 40.231 105.378 40.3684 105.922 40.6411C106.471 40.9308 106.942 41.3435 107.297 41.8456V40.4346L108.277 40.4389ZM104.243 41.2003C103.694 41.1962 103.155 41.3371 102.681 41.6082C102.208 41.8793 101.818 42.2705 101.553 42.7405C101.27 43.21 101.119 43.7441 101.113 44.2892C101.118 44.833 101.27 45.3659 101.553 45.8336C101.82 46.3121 102.215 46.7106 102.696 46.9865C103.158 47.2651 103.691 47.4139 104.234 47.4167C104.786 47.4099 105.327 47.2615 105.803 46.9865C106.282 46.7301 106.678 46.347 106.946 45.8809C107.215 45.4001 107.353 44.8591 107.345 44.3107C107.359 43.9018 107.288 43.4944 107.137 43.1129C106.986 42.7315 106.758 42.3838 106.466 42.0908C106.183 41.8015 105.841 41.5726 105.463 41.4186C105.085 41.2646 104.679 41.1888 104.269 41.196L104.243 41.2003Z" fill="white"/>
<path d="M110.541 40.4389H111.547V41.8156C111.901 41.3318 112.359 40.9295 112.888 40.6368C113.38 40.3752 113.932 40.2405 114.492 40.2453C115.044 40.2332 115.588 40.383 116.052 40.6755C116.501 40.9608 116.851 41.3715 117.059 41.8543C117.313 42.5962 117.424 43.3784 117.384 44.1602V48.1094H116.377V44.4527C116.399 43.8611 116.361 43.2688 116.263 42.6846C116.182 42.2382 115.944 41.8335 115.591 41.5402C115.21 41.2664 114.744 41.131 114.272 41.1574C113.671 41.1527 113.088 41.3621 112.633 41.7467C112.162 42.1231 111.826 42.6371 111.675 43.2137C111.553 43.9024 111.504 44.6016 111.53 45.3002V48.1094H110.523L110.541 40.4389Z" fill="white"/>
<path d="M123.484 41.2821L122.834 41.936C122.431 41.4874 121.864 41.2122 121.256 41.1703C121.102 41.1664 120.948 41.1925 120.804 41.2472C120.66 41.3018 120.528 41.3839 120.417 41.4886C120.307 41.5788 120.218 41.6913 120.158 41.8184C120.097 41.9455 120.065 42.084 120.065 42.2242C120.074 42.493 120.182 42.7496 120.368 42.947C120.72 43.2854 121.131 43.5594 121.581 43.7558C122.165 44.0128 122.686 44.3882 123.111 44.8571C123.372 45.2063 123.511 45.6288 123.506 46.0616C123.513 46.3597 123.456 46.6559 123.34 46.9314C123.223 47.2069 123.049 47.4557 122.829 47.662C122.607 47.8769 122.342 48.0456 122.052 48.158C121.761 48.2704 121.45 48.3241 121.137 48.3159C120.681 48.3205 120.23 48.2219 119.819 48.0277C119.42 47.8444 119.071 47.5717 118.799 47.2318L119.432 46.5263C119.624 46.7783 119.871 46.986 120.154 47.1346C120.437 47.2833 120.75 47.3693 121.071 47.3867C121.452 47.3948 121.821 47.2575 122.1 47.0038C122.236 46.8953 122.345 46.7589 122.421 46.6043C122.497 46.4496 122.538 46.2805 122.539 46.109C122.542 45.8329 122.442 45.5654 122.258 45.3561C121.884 45.0169 121.454 44.7407 120.988 44.5387C120.433 44.2966 119.941 43.9365 119.546 43.4847C119.294 43.1367 119.16 42.7197 119.164 42.2931C119.157 42.0225 119.208 41.7534 119.313 41.5031C119.418 41.2527 119.575 41.0265 119.775 40.839C119.978 40.6461 120.219 40.4952 120.484 40.3954C120.748 40.2956 121.03 40.249 121.313 40.2582C122.157 40.3087 122.947 40.6828 123.511 41.2993L123.484 41.2821Z" fill="white"/>
<path d="M131.874 45.5624L132.722 45.9926C132.481 46.4758 132.154 46.9129 131.755 47.2832C131.397 47.6066 130.98 47.8606 130.525 48.0317C130.028 48.2104 129.502 48.2979 128.973 48.2898C128.411 48.319 127.849 48.2236 127.329 48.0105C126.809 47.7975 126.345 47.4724 125.972 47.0595C125.304 46.3237 124.921 45.3813 124.892 44.3975C124.862 43.4136 125.187 42.4508 125.809 41.6777C126.171 41.2104 126.642 40.8348 127.182 40.5826C127.723 40.3303 128.318 40.2087 128.916 40.2279C129.532 40.2081 130.144 40.3324 130.702 40.5905C131.259 40.8486 131.745 41.2331 132.12 41.7121C132.709 42.464 133.019 43.3893 132.999 44.3363H125.932C125.921 45.1507 126.236 45.9369 126.811 46.526C127.078 46.8038 127.401 47.0238 127.76 47.172C128.118 47.3202 128.505 47.3932 128.894 47.3864C129.293 47.3867 129.689 47.3168 130.063 47.1799C130.416 47.0597 130.742 46.8758 131.026 46.6379C131.366 46.3197 131.655 45.9527 131.883 45.5495L131.874 45.5624ZM131.874 43.5017C131.772 43.0451 131.571 42.6153 131.285 42.2412C131.01 41.9132 130.661 41.6525 130.265 41.4798C129.853 41.291 129.403 41.1926 128.947 41.1915C128.215 41.1768 127.505 41.4352 126.96 41.9143C126.51 42.3497 126.192 42.8993 126.042 43.5017H131.874Z" fill="white"/>
<path fill-rule="evenodd" clip-rule="evenodd" d="M46.04 63.794H47.114V58.7907H47.7209L51.5867 63.794H52.9154L49.0503 58.7907C49.9514 58.7859 50.6577 58.6697 51.1691 58.4423C51.6565 58.2357 52.0685 57.8835 52.3491 57.4338C52.6302 56.9675 52.7733 56.4308 52.762 55.8862C52.7819 55.2404 52.5692 54.6091 52.1628 54.1077C51.7647 53.6268 51.2164 53.2947 50.6066 53.1652C50.1828 53.0674 49.3743 53.0185 48.1809 53.0185H46.04V63.794ZM49.0096 54.0731C49.7461 54.0731 50.273 54.1366 50.5903 54.2636C50.906 54.3895 51.1746 54.611 51.3587 54.8972C51.5526 55.1888 51.6546 55.5321 51.6514 55.8825C51.6555 56.2394 51.555 56.5897 51.3623 56.8899C51.1708 57.1893 50.8885 57.4191 50.557 57.5455C50.2131 57.6823 49.6826 57.7506 48.9654 57.7506L47.1138 57.7358V54.0731H49.0094H49.0096ZM54.764 59.6625C54.764 60.7954 54.8918 61.644 55.1475 62.208C55.39 62.757 55.7957 63.2176 56.3092 63.5266C56.828 63.8416 57.4746 63.9991 58.2492 63.9991C59.0237 63.9991 59.6679 63.8416 60.1817 63.5266C60.6898 63.2181 61.0924 62.7621 61.3361 62.219C61.5919 61.6623 61.7198 60.8345 61.7198 59.7357V55.8239H60.675V59.5453C60.675 60.5418 60.6238 61.1938 60.5214 61.5012C60.3742 61.945 60.0848 62.3275 59.6981 62.589C59.2683 62.8744 58.7608 63.019 58.2456 63.0028C57.7222 63.0167 57.2073 62.8683 56.7712 62.578C56.3648 62.3029 56.0681 61.8931 55.9332 61.4205C55.8357 61.0787 55.7869 60.4536 55.7869 59.5453V55.8239H54.7639V59.6625H54.764ZM65.7784 55.6188C65.4912 55.6094 65.205 55.6577 64.9366 55.7608C64.6683 55.864 64.4232 56.02 64.2159 56.2195C64.0135 56.4138 63.8539 56.6485 63.7474 56.9084C63.6409 57.1683 63.5898 57.4476 63.5974 57.7285C63.5911 58.1722 63.7271 58.6062 63.9855 58.9666C64.2442 59.3279 64.7323 59.6942 65.45 60.0653C66.1186 60.4072 66.5482 60.6904 66.7387 60.9151C66.9249 61.1334 67.0262 61.4117 67.0242 61.6989C67.0238 61.8761 66.9849 62.0511 66.9103 62.2117C66.8357 62.3724 66.7271 62.5149 66.5921 62.6293C66.3071 62.8918 65.9318 63.0335 65.5449 63.0248C64.959 63.0248 64.4048 62.7293 63.8825 62.1385L63.2394 62.871C63.515 63.2245 63.8698 63.5081 64.2749 63.6987C64.6844 63.8973 65.1336 64 65.5884 63.9991C65.9061 64.0081 66.2223 63.9524 66.5179 63.8353C66.8134 63.7182 67.0822 63.5422 67.3079 63.3178C67.5306 63.1031 67.7067 62.8446 67.8251 62.5585C67.9435 62.2723 68.0017 61.9647 67.9959 61.655C68.0003 61.2048 67.859 60.7653 67.5932 60.4023C67.3198 60.0361 66.8024 59.6551 66.0409 59.2595C65.416 58.9372 65.0061 58.6564 64.8112 58.4171C64.6281 58.2137 64.5242 57.9511 64.5184 57.6772C64.519 57.531 64.5511 57.3865 64.6124 57.2538C64.6737 57.1211 64.7628 57.0032 64.8737 56.9081C65.1043 56.6906 65.4106 56.5723 65.7272 56.5784C66.2496 56.5784 66.7843 56.8446 67.3314 57.3769L67.989 56.6957C67.2473 55.9777 66.5106 55.6188 65.7788 55.6188H65.7784ZM71.5871 55.6188C71.2998 55.6094 71.0136 55.6577 70.7452 55.7608C70.4769 55.864 70.2319 56.02 70.0245 56.2195C69.8221 56.4138 69.6625 56.6485 69.556 56.9084C69.4495 57.1683 69.3984 57.4476 69.4061 57.7285C69.3997 58.1722 69.5357 58.6062 69.7941 58.9666C70.0528 59.3279 70.5409 59.6942 71.2586 60.0653C71.9272 60.4072 72.3568 60.6904 72.5473 60.9151C72.7335 61.1334 72.8349 61.4117 72.8328 61.6989C72.8324 61.8761 72.7935 62.0511 72.7189 62.2117C72.6443 62.3724 72.5357 62.5149 72.4007 62.6293C72.1158 62.8918 71.7405 63.0335 71.3535 63.0248C70.7676 63.0248 70.2134 62.7293 69.6911 62.1385L69.0481 62.871C69.3237 63.2246 69.6784 63.5081 70.0835 63.6987C70.4931 63.8973 70.9422 64 71.3972 63.9991C71.7148 64.0081 72.031 63.9524 72.3266 63.8353C72.6221 63.7182 72.8909 63.5422 73.1166 63.3178C73.3394 63.1031 73.5155 62.8446 73.6338 62.5585C73.7522 62.2723 73.8104 61.9647 73.8046 61.655C73.809 61.2048 73.6677 60.7653 73.402 60.4023C73.1285 60.0361 72.6111 59.6551 71.8497 59.2595C71.2249 58.9372 70.815 58.6564 70.6199 58.4171C70.4368 58.2138 70.3328 57.9511 70.3271 57.6772C70.3277 57.531 70.3597 57.3866 70.421 57.2538C70.4823 57.1211 70.5714 57.0032 70.6823 56.9081C70.9129 56.6906 71.2193 56.5723 71.5358 56.5784C72.0582 56.5784 72.5929 56.8446 73.14 57.3769L73.7976 56.6957C73.056 55.9777 72.3192 55.6188 71.5874 55.6188H71.5871ZM75.3742 52.7912C75.2944 52.8691 75.2314 52.9625 75.1889 53.0657C75.1463 53.1689 75.1253 53.2797 75.127 53.3913C75.127 53.6147 75.2155 53.829 75.3731 53.987C75.5306 54.145 75.7444 54.2337 75.9672 54.2337C76.1901 54.2337 76.4038 54.145 76.5614 53.987C76.7189 53.829 76.8075 53.6147 76.8075 53.3913C76.8078 53.1665 76.719 52.9507 76.5608 52.7914C76.4026 52.6321 76.1878 52.5422 75.9635 52.5415C75.8535 52.5405 75.7444 52.5621 75.6431 52.605C75.5417 52.648 75.4502 52.7113 75.3743 52.7912H75.3742ZM75.4558 63.794H76.4788V55.8239H75.4558V63.794ZM85.5168 55.8239V57.289C85.1572 56.7678 84.6805 56.3387 84.125 56.0363C83.5775 55.7534 82.969 55.61 82.3532 55.6188C81.8117 55.6114 81.2745 55.7162 80.7754 55.9267C80.2763 56.1372 79.8259 56.4489 79.4525 56.8421C79.0631 57.2255 78.7554 57.6842 78.5482 58.1904C78.3409 58.6967 78.2384 59.2398 78.2469 59.787C78.2359 60.3395 78.3359 60.8885 78.5412 61.4014C78.7464 61.9143 79.0526 62.3804 79.4415 62.7721C80.0295 63.3796 80.7929 63.7867 81.6241 63.9359C82.4552 64.0851 83.3121 63.9688 84.0738 63.6035C84.6335 63.3185 85.1256 62.9163 85.5168 62.4241V63.794H86.5251V55.8239H85.5168ZM84.674 57.5369C85.2797 58.1565 85.5826 58.9272 85.5826 59.8491C85.5913 60.4191 85.4517 60.9815 85.1775 61.4809C84.9066 61.9646 84.5059 62.3626 84.0209 62.6296C83.5367 62.908 82.9881 63.0543 82.4299 63.054C81.8814 63.0558 81.3427 62.9078 80.8717 62.626C80.3858 62.3387 79.9862 61.9254 79.715 61.4296C79.4336 60.9402 79.2852 60.3853 79.2845 59.8204C79.2839 59.2555 79.431 58.7003 79.7113 58.2102C79.9793 57.7215 80.3741 57.3145 80.854 57.0323C81.3339 56.7502 81.8809 56.6035 82.4372 56.6076C82.8539 56.5988 83.2679 56.6769 83.6529 56.8369C84.0379 56.9968 84.3856 57.2353 84.674 57.537V57.5369Z" fill="#FEFEFE"/>
</svg>
