<svg width="1107" height="597" viewBox="0 0 1107 597" fill="none" xmlns="http://www.w3.org/2000/svg"><g opacity=".1"><mask id="mask0" maskUnits="userSpaceOnUse" x="0" y="0" width="1107" height="1138"><path d="M645.639 107.972l-23.711 88.491c-51.391-10.059-104.211-9.771-155.235.848-46.114-41.565-101.672-71.704-161.937-87.85l-15.264 56.967c39.45 10.509 76.639 28.113 109.66 51.909-52.97 21.637-100.174 54.693-138.139 96.737-37.966 42.043-65.725 92.004-81.237 146.206l-56.626-15.173-3.616 13.495 56.626 15.173c-13.558 54.776-14.431 111.971-2.555 167.414 11.877 55.442 36.204 107.734 71.207 153.062-40.581 4.259-81.707 1.001-121.239-9.605l-15.234 56.856c60.289 16.164 123.514 17.766 184.225 4.667 38.734 34.85 84.172 61.745 133.579 79.066l-23.414 87.385 57.985 15.54 23.415-87.388c51.408 9.844 104.2 9.347 155.157-1.462 46.092 41.594 101.658 71.74 161.937 87.85l15.234-56.856c-39.415-10.525-76.56-28.158-109.518-51.99 53.075-21.716 100.389-54.831 138.486-96.927 38.098-42.096 66.017-92.109 81.718-146.387l56.627 15.173 3.616-13.495-56.627-15.173c13.637-54.721 14.54-111.888 2.644-167.292-11.896-55.404-36.289-107.635-71.384-152.852 40.299-4.095 81.113-.798 120.357 9.724l15.264-56.966c-60.279-16.269-123.506-18.081-184.304-5.281-38.694-34.74-84.091-61.505-133.442-78.673l23.504-87.717-57.759-15.476zm-38.768 144.683l-30.084 112.273c-10.048-30.911-24.069-60.485-41.724-88.004a455.971 455.971 0 0140.896-28.047 306.926 306.926 0 0130.912 3.778zm57.986 15.537a325.822 325.822 0 0129.732 12.709 458.496 458.496 0 0121.006 43.922c-29.263 14.997-56.404 33.622-80.762 55.421l30.024-112.052zm-112.513-20.426c-8.471 5.792-16.745 11.755-24.852 18-3.856-5.538-7.886-10.886-12.028-16.264a329.837 329.837 0 0136.94-1.957l-.06.221zm163.085 43.699a343.951 343.951 0 0130.683 19.128c-6.134 2.506-12.297 5.123-18.264 7.91-3.731-9.18-8.117-18.18-12.419-27.038zm-266.283-28.671a340.312 340.312 0 0132.699 41.958c-10.568 10.446-20.688 21.487-30.271 32.79l-97.964-26.249c28.881-21.18 61.15-37.561 95.536-48.499zm347.122 93.011c24.451 26.661 44.323 57.017 58.827 89.861l-97.738-26.189c-2.702-14.832-5.999-29.705-10.011-44.177a342.372 342.372 0 0148.922-19.495zm-61.634 26.165c2.97 11.111 5.572 22.241 7.661 33.471l-42.13-11.289a340.23 340.23 0 0134.469-22.182zm-245.116-65.085a326.867 326.867 0 0118.343 35.739l-41.338-11.076c7.365-8.459 15.153-16.687 22.995-24.663zm-150.146 5.412L441.3 349.609c-37.319 47.638-64.926 101.927-81.338 159.952l-122.087-32.713c17.586-60.396 53.101-114.123 102.064-154.399l-.567-.152zm117.217 31.409l58.099 15.567c22.314 59.352 26.208 123.652 11.19 184.745l-150.966-40.452c16.383-58.096 44.203-112.375 81.904-159.8l-.227-.06zm229.112 61.39l59.458 15.932c9.052 59.917 6.005 120.855-8.969 179.343l-152.099-40.755c17.592-60.393 53.106-114.118 102.063-154.399l-.453-.121zm73.841 19.786l101.928 27.311c22.299 59.355 26.194 123.651 11.19 184.745l-122.313-32.774c14.869-58.457 18.068-119.307 9.422-179.222l-.227-.06zm-525.509 55.4l122.88 32.925c-14.851 58.558-17.993 119.507-9.255 179.504l-102.495-27.463c-22.318-59.43-26.192-123.808-11.13-184.966zm137.036 36.719l150.967 40.451c-17.753 60.397-53.26 114.155-102.122 154.62l-57.307-15.355c-9.249-60.008-6.374-121.075 8.462-179.716zm209.179 56.049l152.326 40.816c-16.472 58.203-44.515 112.525-82.53 159.869l-58.665-15.719c-22.207-59.451-26.08-123.797-11.131-184.966zm166.256 44.548l122.54 32.835c-17.548 60.489-53.09 114.302-102.122 154.619l-101.928-27.311c37.456-47.658 65.199-101.991 81.737-160.082l-.227-.061zm-494.567 64.047l98.191 26.31c2.648 14.581 6.064 29.012 10.023 43.232a324.792 324.792 0 01-49.785 20.449c-24.331-26.723-44.069-57.123-58.429-89.991zm113.254 30.346l40.771 10.925a356.934 356.934 0 01-33.469 21.619c-2.833-10.717-5.237-21.676-7.302-32.544zm232.962 62.422l42.243 11.319c-7.537 8.651-15.385 17.1-23.483 25.125a340.117 340.117 0 01-18.76-36.444zm57.193 15.325l97.737 26.189c-28.991 21.397-61.432 37.938-96.024 48.96a335.428 335.428 0 01-32.472-41.896 437.505 437.505 0 0030.759-33.253zm-183.48-43.236l-30.232 112.827c-9.306-3.323-18.434-7.311-27.276-11.458a465.11 465.11 0 01-22.2-46.258c28.904-15.047 55.705-33.639 79.767-55.332l-.059.221zm57.837 16.091c10.144 30.846 24.171 60.373 41.754 87.893a454.062 454.062 0 01-40.926 28.158c-10.214-.84-20.565-2.073-30.882-3.889l30.054-112.162zm-149.882 45.199c4.232 10.026 8.864 19.922 13.638 29.737a371.13 371.13 0 01-32.902-21.265c6.562-2.746 12.982-5.413 19.264-8.472zm199.517 54.054c3.857 5.538 8.113 10.947 12.255 16.325a313.666 313.666 0 01-37.732 1.745c8.697-5.732 17.174-11.997 25.536-18.292l-.059.222z" fill="#C4C4C4"/></mask><g mask="url(#mask0)" stroke="#fff"><path d="M237.005-.087l883.635 236.769M235.571 5.264l883.639 236.769M234.136 10.615l883.634 236.769M232.702 15.966l883.638 236.77M231.269 21.318L1114.9 258.087M229.835 26.67l883.635 236.768M228.401 32.02l883.639 236.77M226.968 37.372L1110.6 274.14M225.534 42.723l883.636 236.769M224.099 48.074l883.631 236.77M222.665 53.425l883.635 236.77M221.231 58.777l883.639 236.769M219.798 64.128l883.632 236.769M218.364 69.48L1102 306.247M216.931 74.83L1100.57 311.6M215.497 80.182l883.633 236.769M214.061 85.533l883.639 236.77M212.627 90.885l883.633 236.769M211.193 96.236l883.637 236.769M209.76 101.587l883.63 236.769M208.326 106.939l883.634 236.769M206.893 112.29l883.637 236.769M205.459 117.641L1089.09 354.41M204.025 122.993l883.635 236.769M202.592 128.344l883.638 236.769M201.156 133.695l883.634 236.769M199.723 139.047l883.637 236.769M198.289 144.398l883.631 236.769M196.855 149.749l883.635 236.769M195.422 155.1l883.638 236.769M193.988 160.452l883.632 236.769M192.553 165.803l883.637 236.769M191.119 171.154l883.631 236.769M189.686 176.505l883.634 236.77M188.252 181.857l883.638 236.769M186.818 187.208l883.632 236.769M185.385 192.559l883.635 236.77M183.951 197.911L1067.59 434.68M182.518 203.262l883.632 236.769M181.084 208.613l883.636 236.77M179.65 213.965l883.63 236.769M178.215 219.316l883.635 236.769M176.781 224.667l883.639 236.77M175.348 230.018l883.632 236.77M173.914 235.37l883.636 236.769M172.478 240.721L1056.11 477.49M171.044 246.073l883.636 236.769M169.61 251.424l883.63 236.769M168.177 256.775l883.633 236.769M166.743 262.126l883.637 236.77M165.31 267.478l883.63 236.769M163.876 272.829l883.634 236.769M162.442 278.18l883.638 236.77M161.009 283.532l883.631 236.769M159.575 288.883l883.635 236.769M158.142 294.234l883.638 236.77M156.708 299.586l883.632 236.769M155.274 304.937l883.636 236.77M153.839 310.288l883.631 236.769M152.405 315.639l883.635 236.77M150.97 320.991L1034.6 557.76M149.536 326.342l883.634 236.769M148.103 331.693l883.637 236.77M146.669 337.045L1030.3 573.814M145.235 342.396l883.635 236.769M143.802 347.747l883.638 236.77M142.368 353.099L1026 589.868M140.935 358.45l883.635 236.769M139.501 363.802l883.639 236.769M138.067 369.153L1021.7 605.922M136.634 374.504l883.636 236.769M135.2 379.855l883.63 236.769M133.767 385.207L1017.4 621.976M132.333 390.558l883.637 236.769M130.895 395.909l883.635 236.769M129.461 401.261L1013.1 638.03M128.027 406.612l883.633 236.769M126.594 411.963l883.636 236.769M125.16 417.314l883.63 236.769M123.727 422.666l883.633 236.769M122.293 428.017l883.637 236.769M120.859 433.368l883.631 236.769M119.426 438.72l883.634 236.769M117.992 444.071L1001.63 680.84M116.559 449.422l883.631 236.769M115.125 454.773l883.635 236.77M113.691 460.125l883.635 236.769M112.258 465.476l883.634 236.769M110.824 470.827l883.635 236.77M109.391 476.179l883.634 236.769M107.953 481.53L991.588 718.3M106.52 486.881L990.154 723.65M105.086 492.232l883.634 236.77M103.652 497.584l883.635 236.769M102.219 502.935l883.634 236.769M100.785 508.286l883.635 236.77M99.352 513.638l883.634 236.769M97.918 518.989l883.635 236.77M96.484 524.34L980.12 761.11M95.05 529.692l883.635 236.769M93.617 535.043l883.635 236.769M92.184 540.395l883.634 236.769M90.75 545.746l883.635 236.769M89.316 551.097l883.635 236.769M87.883 556.448l883.634 236.77M86.45 561.8l883.634 236.769M85.01 567.151L968.646 803.92M83.577 572.502l883.635 236.77M82.144 577.854l883.634 236.769M80.71 583.205l883.634 236.769M79.276 588.556l883.635 236.769M77.843 593.907l883.634 236.77"/></g></g></svg>