<svg xmlns="http://www.w3.org/2000/svg" xmlns:xlink="http://www.w3.org/1999/xlink">
    <symbol viewBox="0 0 8 30" id="icon-arrow-long">
        <path d="M3.64645 29.8536C3.84171 30.0488 4.15829 30.0488 4.35355 29.8536L7.53553 26.6716C7.73079 26.4763 7.73079 26.1597 7.53553 25.9645C7.34027 25.7692 7.02369 25.7692 6.82843 25.9645L4 28.7929L1.17157 25.9645C0.976309 25.7692 0.659727 25.7692 0.464464 25.9645C0.269203 26.1597 0.269203 26.4763 0.464465 26.6716L3.64645 29.8536ZM3.5 3.00052e-08L3.5 29.5L4.5 29.5L4.5 -3.00054e-08L3.5 3.00052e-08Z"/>
    </symbol>
    <symbol viewBox="0 0 14 9" id="icon-chevron">
        <path d="M1 1L7 7L13 1" stroke-width="2"/>
    </symbol>
    <symbol viewBox="0 0 10 18" id="icon-facebook">
        <path d="M6.39703 17.9969V9.80092H9.16203L9.57303 6.59193H6.39703V4.54792C6.39703 3.62192 6.65503 2.98793 7.98403 2.98793H9.66803V0.126925C8.84867 0.0391161 8.02508 -0.00328216 7.20103 -7.49744e-05C4.75703 -7.49744e-05 3.07903 1.49193 3.07903 4.23093V6.58593H0.332031V9.79492H3.08503V17.9969H6.39703Z"/>
    </symbol>
    <symbol viewBox="0 0 20 20" id="icon-instagram">
        <path d="M18.9469 6.30496C18.9369 5.54758 18.7951 4.79773 18.5279 4.08896C18.2963 3.49111 17.9425 2.94816 17.4891 2.49479C17.0358 2.04142 16.4928 1.68761 15.8949 1.45596C15.1953 1.19331 14.4561 1.0513 13.7089 1.03596C12.7469 0.992957 12.4419 0.980957 9.99995 0.980957C7.55795 0.980957 7.24495 0.980957 6.28995 1.03596C5.54311 1.05141 4.8043 1.19343 4.10495 1.45596C3.50701 1.68745 2.96397 2.0412 2.51058 2.49459C2.05719 2.94798 1.70344 3.49102 1.47195 4.08896C1.20878 4.78809 1.06707 5.52707 1.05295 6.27396C1.00995 7.23696 0.996948 7.54196 0.996948 9.98396C0.996948 12.426 0.996948 12.738 1.05295 13.694C1.06795 14.442 1.20895 15.18 1.47195 15.881C1.70383 16.4787 2.05784 17.0215 2.51138 17.4747C2.96492 17.9279 3.50801 18.2815 4.10595 18.513C4.80338 18.7862 5.54232 18.9383 6.29095 18.963C7.25395 19.006 7.55895 19.019 10.0009 19.019C12.4429 19.019 12.7559 19.019 13.7109 18.963C14.4581 18.9482 15.1973 18.8066 15.8969 18.544C16.4946 18.312 17.0375 17.9581 17.4908 17.5048C17.9441 17.0515 18.298 16.5086 18.5299 15.911C18.7929 15.211 18.9339 14.473 18.9489 13.724C18.9919 12.762 19.0049 12.457 19.0049 10.014C19.0029 7.57196 19.0029 7.26196 18.9469 6.30496ZM9.99395 14.602C7.43995 14.602 5.37095 12.533 5.37095 9.97896C5.37095 7.42496 7.43995 5.35596 9.99395 5.35596C11.22 5.35596 12.3959 5.84302 13.2629 6.71C14.1299 7.57698 14.6169 8.75286 14.6169 9.97896C14.6169 11.2051 14.1299 12.3809 13.2629 13.2479C12.3959 14.1149 11.22 14.602 9.99395 14.602ZM14.8009 6.26296C14.2039 6.26296 13.7229 5.78096 13.7229 5.18496C13.7229 5.04346 13.7508 4.90334 13.805 4.77262C13.8591 4.64189 13.9385 4.5231 14.0385 4.42305C14.1386 4.32299 14.2574 4.24363 14.3881 4.18948C14.5188 4.13533 14.6589 4.10746 14.8004 4.10746C14.9419 4.10746 15.0821 4.13533 15.2128 4.18948C15.3435 4.24363 15.4623 4.32299 15.5624 4.42305C15.6624 4.5231 15.7418 4.64189 15.7959 4.77262C15.8501 4.90334 15.8779 5.04346 15.8779 5.18496C15.8779 5.78096 15.3959 6.26296 14.8009 6.26296Z"/>
        <path d="M9.99397 12.9821C11.6525 12.9821 12.997 11.6376 12.997 9.97907C12.997 8.32056 11.6525 6.97607 9.99397 6.97607C8.33546 6.97607 6.99097 8.32056 6.99097 9.97907C6.99097 11.6376 8.33546 12.9821 9.99397 12.9821Z"/>
    </symbol>
    <symbol viewBox="0 0 19 19" id="icon-linkedin">
        <path d="M2.98304 5.19704C4.19144 5.19704 5.17104 4.21744 5.17104 3.00904C5.17104 1.80065 4.19144 0.821045 2.98304 0.821045C1.77464 0.821045 0.795044 1.80065 0.795044 3.00904C0.795044 4.21744 1.77464 5.19704 2.98304 5.19704Z"/>
        <path d="M7.23697 6.85493V18.9939H11.006V12.9909C11.006 11.4069 11.304 9.87293 13.268 9.87293C15.205 9.87293 15.229 11.6839 15.229 13.0909V18.9949H19V12.3379C19 9.06793 18.296 6.55493 14.474 6.55493C12.639 6.55493 11.409 7.56193 10.906 8.51493H10.855V6.85493H7.23697ZM1.09497 6.85493H4.86997V18.9939H1.09497V6.85493Z"/>
    </symbol>
    <symbol viewBox="0 0 133 64" id="icon-logo">
        <path d="M65.3299 0V3.44161C63.3716 3.57626 61.462 4.1003 59.7176 4.98172C57.6447 3.92186 55.3407 3.36838 53.0021 3.36847V5.584C54.5324 5.58179 56.0497 5.85899 57.4761 6.40138C55.7682 7.70155 54.3797 9.36003 53.413 11.2548C52.4463 13.1496 51.9259 15.2324 51.8902 17.35H49.6927V17.8748H51.8902C51.9307 19.9943 52.4539 22.0782 53.4218 23.9746C54.3897 25.871 55.7779 27.5319 57.4849 28.8364C56.057 29.3855 54.5363 29.6672 53.0021 29.6667V31.8779C55.3418 31.8783 57.6465 31.3216 59.7176 30.256C61.4581 31.144 63.3642 31.6781 65.3211 31.8263V35.2249H67.5713V31.8263C69.5281 31.6837 71.4348 31.1523 73.1749 30.2646C75.2473 31.3258 77.5516 31.8794 79.8904 31.8779V29.6667C78.3612 29.668 76.8452 29.3893 75.4207 28.845C77.1317 27.5409 78.5235 25.8792 79.4945 23.9813C80.4655 22.0834 80.9911 19.9971 81.0331 17.8748H83.2305V17.35H81.0331C80.9959 15.2317 80.474 13.1486 79.5058 11.2538C78.5376 9.35905 77.1476 7.7009 75.4383 6.40138C76.8577 5.86093 78.3674 5.58376 79.8904 5.584V3.36847C77.55 3.36419 75.2432 3.91321 73.1661 4.96882C71.4281 4.08444 69.5247 3.55464 67.5713 3.41149V0H65.3299ZM65.3299 5.62702V9.99356C64.6662 8.96959 63.8716 8.03279 62.9654 7.20587C63.3419 6.71305 63.7453 6.24057 64.174 5.7905C64.5562 5.71648 64.942 5.66191 65.3299 5.62702ZM67.5801 5.62702C67.9828 5.66447 68.3832 5.7219 68.7799 5.7991C69.2003 6.24147 69.5964 6.70531 69.9666 7.18866C69.0526 8.01737 68.2506 8.95709 67.5801 9.98496V5.62702ZM63.3082 5.97979C63.0577 6.27233 62.816 6.56916 62.5831 6.8746C62.3897 6.71113 62.1919 6.55625 61.9898 6.40138C62.4205 6.2335 62.8607 6.08986 63.3082 5.97118V5.97979ZM69.637 5.97979C70.076 6.08896 70.5088 6.22107 70.9335 6.37557C70.7357 6.52614 70.5379 6.68102 70.3489 6.84019C70.1248 6.54336 69.8787 6.25942 69.637 5.97979ZM59.7176 7.52852C60.2794 7.88853 60.8113 8.2913 61.3085 8.73308C61.0273 9.2149 60.768 9.71394 60.5306 10.2173H56.729C57.5692 9.16793 58.5787 8.25976 59.7176 7.52852ZM73.1881 7.52852C74.332 8.25821 75.346 9.1665 76.1898 10.2173H72.397C72.1553 9.70534 71.8916 9.1977 71.6059 8.71157C72.1013 8.2778 72.6303 7.88227 73.1881 7.52852ZM71.2103 9.07723C71.4257 9.45151 71.6279 9.83009 71.8125 10.2173H70.1775C70.4981 9.81734 70.843 9.43663 71.2103 9.07723ZM61.7041 9.09875C62.0641 9.451 62.4017 9.82455 62.7149 10.2173H61.1108C61.2954 9.8387 61.4975 9.46442 61.7041 9.09875ZM56.3203 10.755H60.2757C59.3867 12.8465 58.9138 15.0849 58.8825 17.35H54.1448C54.1956 14.9874 54.9602 12.6926 56.3422 10.755H56.3203ZM60.869 10.755H63.1236C64.5073 12.6918 65.2722 14.9871 65.3211 17.35H59.4627C59.4922 15.0826 59.9729 12.8425 60.8778 10.755H60.869ZM69.76 10.755H72.0674C72.9764 12.8412 73.4573 15.0821 73.4825 17.35H67.5801C67.6312 14.9875 68.3958 12.6927 69.7776 10.755H69.76ZM72.6255 10.755H76.581C77.9642 12.692 78.729 14.9872 78.7784 17.35H74.0319C74.0031 15.0842 73.5286 12.8451 72.6343 10.755H72.6255ZM54.136 17.8748H58.9045C58.9349 20.1441 59.4124 22.3863 60.3109 24.4784H56.3334C54.9488 22.5389 54.184 20.2405 54.136 17.8748ZM59.4539 17.8748H65.3123C65.2555 20.2391 64.4915 22.535 63.1149 24.4784H60.891C59.9739 22.3909 59.4856 20.147 59.4539 17.8748ZM67.5713 17.8748H73.4825C73.4508 20.147 72.9625 22.3909 72.0454 24.4784H69.7688C68.388 22.5371 67.6235 20.2398 67.5713 17.8748ZM74.0231 17.8748H78.7784C78.7299 20.2404 77.9651 22.5387 76.581 24.4784H72.6255C73.5194 22.3849 73.9967 20.1436 74.0319 17.8748H74.0231ZM56.7378 25.0076H60.5482C60.7855 25.5109 61.0492 26.0013 61.3305 26.4789C60.8316 26.9306 60.295 27.3407 59.7263 27.7049C58.5862 26.9718 57.5766 26.0606 56.7378 25.0076ZM61.1327 25.0076H62.7149C62.4022 25.3955 62.0677 25.766 61.7129 26.1175C61.5063 25.7561 61.3129 25.3819 61.1327 25.0076ZM70.1731 25.0076H71.8125C71.6235 25.3948 71.4213 25.7776 71.206 26.1476C70.8386 25.7882 70.4938 25.4075 70.1731 25.0076ZM72.3926 25.0076H76.1854C75.3433 26.0659 74.3292 26.9816 73.1837 27.7179C72.6245 27.3581 72.0954 26.9553 71.6015 26.5133C71.8912 26.0249 72.1553 25.5224 72.3926 25.0076ZM65.3299 25.2227V29.6107C64.9607 29.5806 64.5916 29.5247 64.2312 29.4602C63.7866 28.9954 63.3684 28.5071 62.9786 27.9975C63.8791 27.1704 64.6692 26.2352 65.3299 25.2141V25.2227ZM67.5801 25.2442C68.2467 26.2649 69.041 27.1999 69.9446 28.0276C69.5684 28.522 69.1649 28.9959 68.736 29.4473C68.358 29.5161 67.9713 29.572 67.5801 29.6064V25.2442ZM62.5919 28.3416C62.8424 28.6643 63.1061 28.9783 63.3742 29.2881C62.9004 29.1622 62.4338 29.0114 61.9766 28.8364C62.1875 28.6729 62.3941 28.5137 62.5919 28.3416ZM70.3402 28.3632C70.5335 28.5266 70.7401 28.6815 70.9423 28.8364C70.5019 29.0067 70.0513 29.1504 69.593 29.2666C69.8523 28.974 70.0984 28.6643 70.3402 28.3545V28.3632Z" fill="white"/>
        <path d="M0.0219828 44.6893L3.1292 44.5C3.16118 44.9045 3.30223 45.2934 3.53794 45.6271C3.71206 45.8351 3.93355 46.0003 4.18466 46.1094C4.43576 46.2185 4.70948 46.2684 4.98387 46.2552C5.37023 46.2794 5.75255 46.1664 6.06064 45.9369C6.17591 45.8479 6.2696 45.735 6.33496 45.6063C6.40031 45.4776 6.4357 45.3363 6.43859 45.1926C6.43632 45.0547 6.40329 44.919 6.3418 44.7949C6.2803 44.6708 6.19184 44.5613 6.0826 44.4742C5.57505 44.159 5.00382 43.955 4.40813 43.8762C2.97538 43.5622 1.95575 43.1406 1.33167 42.62C1.0343 42.3767 0.796874 42.0709 0.637071 41.7253C0.477269 41.3796 0.399212 41.0032 0.408727 40.6239C0.410918 40.0884 0.576182 39.5656 0.883389 39.1225C1.23358 38.6218 1.72759 38.2341 2.30295 38.0083C3.13243 37.7049 4.01565 37.5674 4.90036 37.6039C6.24961 37.6039 7.28242 37.8491 7.97683 38.3395C8.34714 38.6187 8.65182 38.9726 8.87021 39.3771C9.08859 39.7816 9.21558 40.2274 9.24257 40.6841L6.16611 40.8605C6.12616 40.4723 5.94342 40.1114 5.65191 39.8452C5.33919 39.6182 4.9551 39.5056 4.56636 39.5269C4.2534 39.5022 3.94171 39.5876 3.68737 39.7678C3.59671 39.8344 3.52324 39.9208 3.47286 40.0202C3.42249 40.1195 3.39661 40.2291 3.3973 40.34C3.40334 40.4245 3.42808 40.5068 3.46982 40.5811C3.51156 40.6554 3.56929 40.7199 3.63902 40.7702C3.97093 40.9743 4.34444 41.105 4.73337 41.1531C5.79165 41.3366 6.82423 41.6412 7.80983 42.0608C8.35982 42.3118 8.82605 42.71 9.15468 43.2094C9.44557 43.6676 9.59795 44.1971 9.59418 44.7366C9.59708 45.3893 9.39956 46.0278 9.02722 46.5693C8.64349 47.1345 8.09761 47.576 7.45823 47.8384C6.64895 48.1505 5.78289 48.2969 4.91355 48.2686C3.11601 48.2686 1.86785 47.933 1.17784 47.2533C0.476738 46.5623 0.0578424 45.6443 0 44.6721L0.0219828 44.6893Z" fill="white"/>
        <path d="M11.0526 37.7844H14.05V43.1146L16.2474 40.628H19.8601L17.1132 43.2523L20.0139 48.1092H16.7133L15.1575 45.0978L14.05 46.1561V48.1092H11.0526V37.7844Z" fill="white"/>
        <path d="M21.0023 37.7844H23.9381V39.7332H21.0023V37.7844ZM21.0023 40.628H23.9381V48.1092H21.0023V40.628Z" fill="white"/>
        <path d="M25.8239 50.9618V40.637H28.5663V41.7426C28.8478 41.3627 29.2033 41.041 29.6123 40.7962C30.0523 40.5739 30.5411 40.4602 31.0363 40.4649C31.4997 40.4453 31.9608 40.5407 32.3765 40.7423C32.7922 40.9439 33.149 41.245 33.4139 41.6179C33.9972 42.4535 34.2914 43.4502 34.2534 44.4615C34.2534 45.7091 33.9486 46.6613 33.3392 47.318C33.0498 47.6375 32.6926 47.8913 32.2925 48.0615C31.8924 48.2316 31.4591 48.3141 31.0231 48.3032C30.5991 48.307 30.1784 48.2311 29.7837 48.0795C29.4059 47.926 29.0647 47.6975 28.7816 47.4084V50.9833H25.8239V50.9618ZM28.7641 44.3884C28.7241 44.8594 28.8599 45.3286 29.1464 45.7091C29.2641 45.8474 29.4122 45.9579 29.5796 46.0324C29.747 46.1069 29.9295 46.1434 30.1133 46.1393C30.2808 46.1393 30.4459 46.1003 30.5949 46.0255C30.7439 45.9507 30.8726 45.8422 30.9703 45.7091C31.2418 45.2922 31.3639 44.7989 31.3175 44.3066C31.3581 43.832 31.2309 43.3581 30.9571 42.9644C30.855 42.8306 30.7224 42.722 30.5698 42.6473C30.4171 42.5726 30.2488 42.5339 30.0782 42.5342C29.8983 42.5311 29.7201 42.5683 29.5571 42.6428C29.3941 42.7174 29.2506 42.8274 29.1376 42.9644C28.8511 43.3755 28.7191 43.8711 28.7641 44.3668V44.3884Z" fill="white"/>
        <path d="M35.137 46.0357L38.0464 45.7647C38.1166 46.0588 38.2944 46.3175 38.5463 46.4919C38.7981 46.6663 39.1066 46.7443 39.4132 46.7112C39.736 46.7313 40.0563 46.645 40.323 46.4659C40.4011 46.4169 40.4654 46.3495 40.5099 46.2698C40.5545 46.1901 40.5779 46.1008 40.5779 46.0099C40.5768 45.9069 40.5451 45.8065 40.4865 45.7209C40.428 45.6353 40.3452 45.5683 40.2483 45.5281C39.8391 45.3878 39.4165 45.2884 38.9869 45.2313C38.268 45.1302 37.5593 44.969 36.8686 44.7494C36.4672 44.5986 36.1192 44.3371 35.8665 43.9966C35.5962 43.6513 35.4522 43.2271 35.4578 42.792C35.445 42.3247 35.6006 41.8678 35.8973 41.5014C36.2147 41.1272 36.6336 40.8483 37.1059 40.697C37.7767 40.4999 38.4759 40.4113 39.1759 40.4345C39.8547 40.4094 40.5337 40.4775 41.1932 40.6367C41.6025 40.7596 41.9751 40.9781 42.2787 41.2734C42.6 41.6073 42.8469 42.0028 43.0039 42.435L40.2219 42.706C40.1714 42.4938 40.0432 42.307 39.8615 42.1811C39.6146 42.0247 39.3249 41.9452 39.0309 41.9531C38.776 41.9327 38.5212 41.9946 38.3057 42.1295C38.2351 42.1776 38.1777 42.2421 38.1386 42.3171C38.0995 42.3922 38.0799 42.4755 38.0816 42.5597C38.0757 42.6519 38.1003 42.7436 38.1517 42.8211C38.2032 42.8986 38.2787 42.9577 38.3672 42.9899C38.7711 43.1295 39.1925 43.2149 39.6198 43.2437C40.3695 43.2985 41.1084 43.4504 41.8173 43.6954C42.2568 43.86 42.6373 44.1472 42.9116 44.5214C43.1585 44.8653 43.2905 45.2756 43.2896 45.6959C43.2847 46.1466 43.1457 46.5861 42.8896 46.9607C42.5789 47.4028 42.1394 47.7431 41.6283 47.9372C40.8793 48.2072 40.0833 48.33 39.2858 48.2986C37.8882 48.2986 36.8949 48.105 36.2972 47.7135C35.7095 47.3261 35.3008 46.7282 35.1589 46.0487L35.137 46.0357Z" fill="white"/>
        <path d="M44.8936 37.4746H45.9001V43.5361L49.5435 40.4387H51.0202L46.7087 44.104L51.2707 48.1092H49.8379L45.8825 44.6676V48.1092H44.876L44.8936 37.4746Z" fill="white"/>
        <path d="M56.0216 40.2454C56.5872 40.2334 57.1486 40.3428 57.6664 40.5657C58.1842 40.7887 58.6458 41.1198 59.019 41.536C59.7291 42.305 60.1171 43.3076 60.1057 44.3441C60.0943 45.3806 59.6843 46.3748 58.9574 47.1286C58.5722 47.5088 58.1138 47.8106 57.6088 48.0166C57.1038 48.2225 56.5621 48.3285 56.015 48.3285C55.468 48.3285 54.9263 48.2225 54.4213 48.0166C53.9163 47.8106 53.4579 47.5088 53.0726 47.1286C52.3435 46.3757 51.9324 45.3807 51.9218 44.3433C51.9112 43.306 52.3019 42.3031 53.0155 41.536C53.3898 41.119 53.8529 40.7873 54.3723 40.5643C54.8917 40.3413 55.4546 40.2325 56.0216 40.2454ZM56.0216 41.2091C55.6165 41.2044 55.2148 41.2828 54.8424 41.4391C54.47 41.5954 54.1351 41.8263 53.8593 42.1168C53.5672 42.4061 53.337 42.7495 53.1823 43.127C53.0276 43.5045 52.9514 43.9084 52.9583 44.3151C52.9549 44.8593 53.0974 45.3948 53.3715 45.8681C53.6309 46.3311 54.0156 46.7151 54.4834 46.9781C54.9537 47.2346 55.4832 47.3693 56.0216 47.3693C56.56 47.3693 57.0895 47.2346 57.5599 46.9781C58.0267 46.7139 58.4111 46.3302 58.6718 45.8681C58.9438 45.3939 59.0861 44.859 59.0849 44.3151C59.0932 43.9075 59.0168 43.5025 58.8604 43.1246C58.7041 42.7467 58.4709 42.4039 58.1751 42.1168C57.9005 41.8271 57.5671 41.5968 57.1963 41.4405C56.8254 41.2842 56.4254 41.2054 56.0216 41.2091Z" fill="white"/>
        <path d="M61.9591 40.4387H62.9699V41.7638C63.2552 41.3409 63.6226 40.9769 64.0511 40.6926C64.5371 40.4082 65.0934 40.2594 65.6596 40.2624C66.0318 40.26 66.4003 40.3348 66.7408 40.4818C67.0612 40.6119 67.348 40.8103 67.5802 41.0625C67.8345 41.3708 68.0255 41.7243 68.1428 42.1036C68.4352 41.5486 68.8679 41.0762 69.3997 40.7313C69.8839 40.4239 70.4489 40.261 71.0259 40.2624C71.5348 40.2535 72.035 40.3928 72.463 40.6624C72.8811 40.9351 73.2033 41.3272 73.386 41.7853C73.6214 42.4779 73.7242 43.2071 73.6892 43.9363V48.1092H72.6564V43.9234C72.6874 43.3529 72.6281 42.7811 72.4806 42.2284C72.3615 41.9226 72.146 41.6619 71.8653 41.4841C71.5538 41.2925 71.1915 41.1953 70.8237 41.2045C70.3488 41.2078 69.8872 41.3584 69.5052 41.6347C69.1039 41.9162 68.7978 42.3087 68.6262 42.7618C68.4022 43.526 68.3087 44.321 68.3494 45.115V48.1264H67.3429V44.1987C67.3732 43.5657 67.3141 42.9316 67.1671 42.3144C67.0517 41.9917 66.8347 41.713 66.5474 41.5185C66.2385 41.3161 65.8731 41.2124 65.5014 41.2217C65.029 41.2191 64.5677 41.3621 64.1829 41.6304C63.7774 41.9053 63.4639 42.2915 63.282 42.7403C63.0516 43.434 62.9518 44.1628 62.9875 44.8913V48.1092H61.9591V40.4387Z" fill="white"/>
        <path d="M75.8249 40.4386H76.8313V41.8497C77.1884 41.3493 77.6593 40.937 78.2069 40.6451C78.7433 40.3744 79.3395 40.237 79.943 40.245C80.4768 40.2374 81.0064 40.3378 81.4988 40.5399C81.9911 40.742 82.4355 41.0414 82.8041 41.4195C83.1893 41.7878 83.4936 42.2292 83.6984 42.7167C83.9032 43.2042 84.0042 43.7275 83.9951 44.2545C84.0053 44.7867 83.9059 45.3154 83.7028 45.8092C83.4997 46.3029 83.197 46.7515 82.8128 47.1283C82.2351 47.7144 81.4832 48.1072 80.6641 48.2509C79.8451 48.3945 79.0006 48.2817 78.2509 47.9285C77.7004 47.6533 77.2163 47.2661 76.8313 46.7927V50.9184H75.8249V40.4386ZM79.8638 41.2001C79.4543 41.1924 79.0475 41.268 78.6692 41.422C78.291 41.576 77.9495 41.8051 77.6664 42.0949C77.3747 42.3879 77.1465 42.7356 76.9954 43.117C76.8444 43.4985 76.7736 43.9059 76.7874 44.3148C76.7799 44.8632 76.9177 45.4042 77.1873 45.885C77.4548 46.3511 77.8508 46.7342 78.33 46.9906C78.8075 47.2651 79.3497 47.4133 79.9034 47.4208C80.4437 47.4167 80.9726 47.2679 81.4328 46.9906C81.9117 46.7141 82.3051 46.3156 82.5711 45.8377C82.8489 45.3676 82.9952 44.8341 82.9952 44.2911C82.9952 43.748 82.8489 43.2146 82.5711 42.7445C82.3064 42.2752 81.9172 41.8844 81.4446 41.6134C80.972 41.3423 80.4335 41.201 79.8858 41.2044L79.8638 41.2001Z" fill="white"/>
        <path d="M92.4775 45.5624L93.3301 45.9926C93.0861 46.4741 92.759 46.9107 92.3633 47.2832C92.0028 47.6058 91.5839 47.8596 91.1283 48.0318C90.6333 48.2105 90.1088 48.298 89.5812 48.2899C89.0185 48.3194 88.4563 48.2241 87.9365 48.011C87.4167 47.798 86.9528 47.4727 86.5795 47.0595C85.8801 46.296 85.4949 45.3058 85.4983 44.2804C85.4926 43.343 85.8152 42.432 86.4125 41.6992C86.7746 41.2313 87.2463 40.8554 87.7878 40.6031C88.3293 40.3508 88.9248 40.2295 89.5241 40.2494C90.1396 40.2296 90.7511 40.3539 91.3076 40.6121C91.8641 40.8702 92.3496 41.2548 92.7236 41.7336C93.314 42.4845 93.6242 43.4106 93.6026 44.3579H86.5267C86.5174 45.1719 86.8327 45.9575 87.4057 46.5476C87.6733 46.8254 87.9972 47.0455 88.3567 47.1937C88.7162 47.3418 89.1033 47.4148 89.4933 47.408C89.8911 47.4082 90.2856 47.3383 90.658 47.2015C91.0111 47.0823 91.3378 46.8983 91.6205 46.6594C91.9609 46.3412 92.2498 45.9742 92.4775 45.571V45.5624ZM92.4775 43.5017C92.3775 43.0446 92.1765 42.6143 91.8886 42.2413C91.6138 41.9133 91.2647 41.6526 90.869 41.4798C90.4563 41.2905 90.0062 41.1921 89.5505 41.1916C88.8199 41.1771 88.1112 41.4355 87.5683 41.9143C87.1145 42.3474 86.7959 42.898 86.6498 43.5017H92.4775Z" fill="white"/>
        <path d="M96.345 37.5908H97.3558V40.4387H98.9512V41.2991H97.3558V48.1092H96.345V41.2906H94.9694V40.4302H96.345V37.5908Z" fill="white"/>
        <path d="M108.277 40.4389V48.1094H107.288V46.7886C106.901 47.2612 106.415 47.6482 105.864 47.9244C105.112 48.2741 104.266 48.385 103.446 48.2416C102.626 48.0981 101.872 47.7075 101.289 47.1242C100.906 46.7473 100.604 46.2985 100.401 45.8047C100.199 45.311 100.1 44.7824 100.111 44.2505C100.103 43.7239 100.204 43.2012 100.408 42.7139C100.612 42.2266 100.915 41.7849 101.298 41.4154C101.668 41.0377 102.113 40.7384 102.606 40.5364C103.099 40.3343 103.629 40.2338 104.164 40.241C104.774 40.231 105.378 40.3684 105.922 40.6411C106.471 40.9308 106.942 41.3435 107.297 41.8456V40.4346L108.277 40.4389ZM104.243 41.2003C103.694 41.1962 103.155 41.3371 102.681 41.6082C102.208 41.8793 101.818 42.2705 101.553 42.7405C101.27 43.21 101.119 43.7441 101.113 44.2892C101.118 44.833 101.27 45.3659 101.553 45.8336C101.82 46.3121 102.215 46.7106 102.696 46.9865C103.158 47.2651 103.691 47.4139 104.234 47.4167C104.786 47.4099 105.327 47.2615 105.803 46.9865C106.282 46.7301 106.678 46.347 106.946 45.8809C107.215 45.4001 107.353 44.8591 107.345 44.3107C107.359 43.9018 107.288 43.4944 107.137 43.1129C106.986 42.7315 106.758 42.3838 106.466 42.0908C106.183 41.8015 105.841 41.5726 105.463 41.4186C105.085 41.2646 104.679 41.1888 104.269 41.196L104.243 41.2003Z" fill="white"/>
        <path d="M110.541 40.4389H111.547V41.8156C111.901 41.3318 112.359 40.9295 112.888 40.6368C113.38 40.3752 113.932 40.2405 114.492 40.2453C115.044 40.2332 115.588 40.383 116.052 40.6755C116.501 40.9608 116.851 41.3715 117.059 41.8543C117.313 42.5962 117.424 43.3784 117.384 44.1602V48.1094H116.377V44.4527C116.399 43.8611 116.361 43.2688 116.263 42.6846C116.182 42.2382 115.944 41.8335 115.591 41.5402C115.21 41.2664 114.744 41.131 114.272 41.1574C113.671 41.1527 113.088 41.3621 112.633 41.7467C112.162 42.1231 111.826 42.6371 111.675 43.2137C111.553 43.9024 111.504 44.6016 111.53 45.3002V48.1094H110.523L110.541 40.4389Z" fill="white"/>
        <path d="M123.484 41.2821L122.834 41.936C122.431 41.4874 121.864 41.2122 121.256 41.1703C121.102 41.1664 120.948 41.1925 120.804 41.2472C120.66 41.3018 120.528 41.3839 120.417 41.4886C120.307 41.5788 120.218 41.6913 120.158 41.8184C120.097 41.9455 120.065 42.084 120.065 42.2242C120.074 42.493 120.182 42.7496 120.368 42.947C120.72 43.2854 121.131 43.5594 121.581 43.7558C122.165 44.0128 122.686 44.3882 123.111 44.8571C123.372 45.2063 123.511 45.6288 123.506 46.0616C123.513 46.3597 123.456 46.6559 123.34 46.9314C123.223 47.2069 123.049 47.4557 122.829 47.662C122.607 47.8769 122.342 48.0456 122.052 48.158C121.761 48.2704 121.45 48.3241 121.137 48.3159C120.681 48.3205 120.23 48.2219 119.819 48.0277C119.42 47.8444 119.071 47.5717 118.799 47.2318L119.432 46.5263C119.624 46.7783 119.871 46.986 120.154 47.1346C120.437 47.2833 120.75 47.3693 121.071 47.3867C121.452 47.3948 121.821 47.2575 122.1 47.0038C122.236 46.8953 122.345 46.7589 122.421 46.6043C122.497 46.4496 122.538 46.2805 122.539 46.109C122.542 45.8329 122.442 45.5654 122.258 45.3561C121.884 45.0169 121.454 44.7407 120.988 44.5387C120.433 44.2966 119.941 43.9365 119.546 43.4847C119.294 43.1367 119.16 42.7197 119.164 42.2931C119.157 42.0225 119.208 41.7534 119.313 41.5031C119.418 41.2527 119.575 41.0265 119.775 40.839C119.978 40.6461 120.219 40.4952 120.484 40.3954C120.748 40.2956 121.03 40.249 121.313 40.2582C122.157 40.3087 122.947 40.6828 123.511 41.2993L123.484 41.2821Z" fill="white"/>
        <path d="M131.874 45.5624L132.722 45.9926C132.481 46.4758 132.154 46.9129 131.755 47.2832C131.397 47.6066 130.98 47.8606 130.525 48.0317C130.028 48.2104 129.502 48.2979 128.973 48.2898C128.411 48.319 127.849 48.2236 127.329 48.0105C126.809 47.7975 126.345 47.4724 125.972 47.0595C125.304 46.3237 124.921 45.3813 124.892 44.3975C124.862 43.4136 125.187 42.4508 125.809 41.6777C126.171 41.2104 126.642 40.8348 127.182 40.5826C127.723 40.3303 128.318 40.2087 128.916 40.2279C129.532 40.2081 130.144 40.3324 130.702 40.5905C131.259 40.8486 131.745 41.2331 132.12 41.7121C132.709 42.464 133.019 43.3893 132.999 44.3363H125.932C125.921 45.1507 126.236 45.9369 126.811 46.526C127.078 46.8038 127.401 47.0238 127.76 47.172C128.118 47.3202 128.505 47.3932 128.894 47.3864C129.293 47.3867 129.689 47.3168 130.063 47.1799C130.416 47.0597 130.742 46.8758 131.026 46.6379C131.366 46.3197 131.655 45.9527 131.883 45.5495L131.874 45.5624ZM131.874 43.5017C131.772 43.0451 131.571 42.6153 131.285 42.2412C131.01 41.9132 130.661 41.6525 130.265 41.4798C129.853 41.291 129.403 41.1926 128.947 41.1915C128.215 41.1768 127.505 41.4352 126.96 41.9143C126.51 42.3497 126.192 42.8993 126.042 43.5017H131.874Z" fill="white"/>
        <path fill-rule="evenodd" clip-rule="evenodd" d="M46.04 63.794H47.114V58.7907H47.7209L51.5867 63.794H52.9154L49.0503 58.7907C49.9514 58.7859 50.6577 58.6697 51.1691 58.4423C51.6565 58.2357 52.0685 57.8835 52.3491 57.4338C52.6302 56.9675 52.7733 56.4308 52.762 55.8862C52.7819 55.2404 52.5692 54.6091 52.1628 54.1077C51.7647 53.6268 51.2164 53.2947 50.6066 53.1652C50.1828 53.0674 49.3743 53.0185 48.1809 53.0185H46.04V63.794ZM49.0096 54.0731C49.7461 54.0731 50.273 54.1366 50.5903 54.2636C50.906 54.3895 51.1746 54.611 51.3587 54.8972C51.5526 55.1888 51.6546 55.5321 51.6514 55.8825C51.6555 56.2394 51.555 56.5897 51.3623 56.8899C51.1708 57.1893 50.8885 57.4191 50.557 57.5455C50.2131 57.6823 49.6826 57.7506 48.9654 57.7506L47.1138 57.7358V54.0731H49.0094H49.0096ZM54.764 59.6625C54.764 60.7954 54.8918 61.644 55.1475 62.208C55.39 62.757 55.7957 63.2176 56.3092 63.5266C56.828 63.8416 57.4746 63.9991 58.2492 63.9991C59.0237 63.9991 59.6679 63.8416 60.1817 63.5266C60.6898 63.2181 61.0924 62.7621 61.3361 62.219C61.5919 61.6623 61.7198 60.8345 61.7198 59.7357V55.8239H60.675V59.5453C60.675 60.5418 60.6238 61.1938 60.5214 61.5012C60.3742 61.945 60.0848 62.3275 59.6981 62.589C59.2683 62.8744 58.7608 63.019 58.2456 63.0028C57.7222 63.0167 57.2073 62.8683 56.7712 62.578C56.3648 62.3029 56.0681 61.8931 55.9332 61.4205C55.8357 61.0787 55.7869 60.4536 55.7869 59.5453V55.8239H54.7639V59.6625H54.764ZM65.7784 55.6188C65.4912 55.6094 65.205 55.6577 64.9366 55.7608C64.6683 55.864 64.4232 56.02 64.2159 56.2195C64.0135 56.4138 63.8539 56.6485 63.7474 56.9084C63.6409 57.1683 63.5898 57.4476 63.5974 57.7285C63.5911 58.1722 63.7271 58.6062 63.9855 58.9666C64.2442 59.3279 64.7323 59.6942 65.45 60.0653C66.1186 60.4072 66.5482 60.6904 66.7387 60.9151C66.9249 61.1334 67.0262 61.4117 67.0242 61.6989C67.0238 61.8761 66.9849 62.0511 66.9103 62.2117C66.8357 62.3724 66.7271 62.5149 66.5921 62.6293C66.3071 62.8918 65.9318 63.0335 65.5449 63.0248C64.959 63.0248 64.4048 62.7293 63.8825 62.1385L63.2394 62.871C63.515 63.2245 63.8698 63.5081 64.2749 63.6987C64.6844 63.8973 65.1336 64 65.5884 63.9991C65.9061 64.0081 66.2223 63.9524 66.5179 63.8353C66.8134 63.7182 67.0822 63.5422 67.3079 63.3178C67.5306 63.1031 67.7067 62.8446 67.8251 62.5585C67.9435 62.2723 68.0017 61.9647 67.9959 61.655C68.0003 61.2048 67.859 60.7653 67.5932 60.4023C67.3198 60.0361 66.8024 59.6551 66.0409 59.2595C65.416 58.9372 65.0061 58.6564 64.8112 58.4171C64.6281 58.2137 64.5242 57.9511 64.5184 57.6772C64.519 57.531 64.5511 57.3865 64.6124 57.2538C64.6737 57.1211 64.7628 57.0032 64.8737 56.9081C65.1043 56.6906 65.4106 56.5723 65.7272 56.5784C66.2496 56.5784 66.7843 56.8446 67.3314 57.3769L67.989 56.6957C67.2473 55.9777 66.5106 55.6188 65.7788 55.6188H65.7784ZM71.5871 55.6188C71.2998 55.6094 71.0136 55.6577 70.7452 55.7608C70.4769 55.864 70.2319 56.02 70.0245 56.2195C69.8221 56.4138 69.6625 56.6485 69.556 56.9084C69.4495 57.1683 69.3984 57.4476 69.4061 57.7285C69.3997 58.1722 69.5357 58.6062 69.7941 58.9666C70.0528 59.3279 70.5409 59.6942 71.2586 60.0653C71.9272 60.4072 72.3568 60.6904 72.5473 60.9151C72.7335 61.1334 72.8349 61.4117 72.8328 61.6989C72.8324 61.8761 72.7935 62.0511 72.7189 62.2117C72.6443 62.3724 72.5357 62.5149 72.4007 62.6293C72.1158 62.8918 71.7405 63.0335 71.3535 63.0248C70.7676 63.0248 70.2134 62.7293 69.6911 62.1385L69.0481 62.871C69.3237 63.2246 69.6784 63.5081 70.0835 63.6987C70.4931 63.8973 70.9422 64 71.3972 63.9991C71.7148 64.0081 72.031 63.9524 72.3266 63.8353C72.6221 63.7182 72.8909 63.5422 73.1166 63.3178C73.3394 63.1031 73.5155 62.8446 73.6338 62.5585C73.7522 62.2723 73.8104 61.9647 73.8046 61.655C73.809 61.2048 73.6677 60.7653 73.402 60.4023C73.1285 60.0361 72.6111 59.6551 71.8497 59.2595C71.2249 58.9372 70.815 58.6564 70.6199 58.4171C70.4368 58.2138 70.3328 57.9511 70.3271 57.6772C70.3277 57.531 70.3597 57.3866 70.421 57.2538C70.4823 57.1211 70.5714 57.0032 70.6823 56.9081C70.9129 56.6906 71.2193 56.5723 71.5358 56.5784C72.0582 56.5784 72.5929 56.8446 73.14 57.3769L73.7976 56.6957C73.056 55.9777 72.3192 55.6188 71.5874 55.6188H71.5871ZM75.3742 52.7912C75.2944 52.8691 75.2314 52.9625 75.1889 53.0657C75.1463 53.1689 75.1253 53.2797 75.127 53.3913C75.127 53.6147 75.2155 53.829 75.3731 53.987C75.5306 54.145 75.7444 54.2337 75.9672 54.2337C76.1901 54.2337 76.4038 54.145 76.5614 53.987C76.7189 53.829 76.8075 53.6147 76.8075 53.3913C76.8078 53.1665 76.719 52.9507 76.5608 52.7914C76.4026 52.6321 76.1878 52.5422 75.9635 52.5415C75.8535 52.5405 75.7444 52.5621 75.6431 52.605C75.5417 52.648 75.4502 52.7113 75.3743 52.7912H75.3742ZM75.4558 63.794H76.4788V55.8239H75.4558V63.794ZM85.5168 55.8239V57.289C85.1572 56.7678 84.6805 56.3387 84.125 56.0363C83.5775 55.7534 82.969 55.61 82.3532 55.6188C81.8117 55.6114 81.2745 55.7162 80.7754 55.9267C80.2763 56.1372 79.8259 56.4489 79.4525 56.8421C79.0631 57.2255 78.7554 57.6842 78.5482 58.1904C78.3409 58.6967 78.2384 59.2398 78.2469 59.787C78.2359 60.3395 78.3359 60.8885 78.5412 61.4014C78.7464 61.9143 79.0526 62.3804 79.4415 62.7721C80.0295 63.3796 80.7929 63.7867 81.6241 63.9359C82.4552 64.0851 83.3121 63.9688 84.0738 63.6035C84.6335 63.3185 85.1256 62.9163 85.5168 62.4241V63.794H86.5251V55.8239H85.5168ZM84.674 57.5369C85.2797 58.1565 85.5826 58.9272 85.5826 59.8491C85.5913 60.4191 85.4517 60.9815 85.1775 61.4809C84.9066 61.9646 84.5059 62.3626 84.0209 62.6296C83.5367 62.908 82.9881 63.0543 82.4299 63.054C81.8814 63.0558 81.3427 62.9078 80.8717 62.626C80.3858 62.3387 79.9862 61.9254 79.715 61.4296C79.4336 60.9402 79.2852 60.3853 79.2845 59.8204C79.2839 59.2555 79.431 58.7003 79.7113 58.2102C79.9793 57.7215 80.3741 57.3145 80.854 57.0323C81.3339 56.7502 81.8809 56.6035 82.4372 56.6076C82.8539 56.5988 83.2679 56.6769 83.6529 56.8369C84.0379 56.9968 84.3856 57.2353 84.674 57.537V57.5369Z" fill="#FEFEFE"/>
    </symbol>
    <symbol viewBox="0 0 30 15" id="icon-eye">
        <path d="M28.9991 11.5137C28.9991 6.21171 22.7311 1.91364 14.9991 1.91364C7.26716 1.91364 0.999146 6.31364 0.999146 11.5137" stroke-width="2"/>
        <path d="M1.00073 4.91362C1.00073 9.88419 7.26875 13.9136 15.0007 13.9136C22.7327 13.9136 29.0007 9.78863 29.0007 4.91362" stroke-width="2"/>
        <path d="M17.6505 7.91403C17.6505 9.33646 16.4767 10.514 14.9984 10.514C13.52 10.514 12.3462 9.33646 12.3462 7.91403C12.3462 6.4916 13.52 5.31403 14.9984 5.31403C16.4767 5.31403 17.6505 6.4916 17.6505 7.91403Z" stroke-width="2"/>
    </symbol>
    <symbol viewBox="0 0 14 14" id="icon-earth">
        <path d="M7.00079 0C5.14428 0 3.3638 0.737498 2.05105 2.05025C0.738291 3.36301 0.000793457 5.14348 0.000793457 7C0.000793457 8.85652 0.738291 10.637 2.05105 11.9497C3.3638 13.2625 5.14428 14 7.00079 14C8.85731 14 10.6378 13.2625 11.9505 11.9497C13.2633 10.637 14.0008 8.85652 14.0008 7C14.0008 5.14348 13.2633 3.36301 11.9505 2.05025C10.6378 0.737498 8.85731 0 7.00079 0V0ZM9.69191 9.29444C9.69191 10.4378 9.06968 11.8611 6.53413 12.95C6.76746 9.70667 4.57413 10.08 4.04524 9.06111C4.09341 8.6396 4.24689 8.23698 4.49156 7.89038C4.73622 7.54377 5.06419 7.26432 5.44524 7.07778C4.23826 6.87075 3.11262 6.33217 2.19413 5.52222C2.23302 5.88778 2.41113 6.22533 2.6919 6.46333C2.08361 6.23404 1.55803 5.82766 1.18302 5.29667C1.55384 4.07276 2.29549 2.99415 3.30555 2.20978C4.31562 1.42541 5.54429 0.973969 6.82191 0.917778C6.16857 1.99111 5.65524 4.13 6.82191 5.25C5.62413 5.44444 4.86968 3.88889 4.20857 4.50333C3.32968 5.32778 4.46524 6.45556 6.86857 6.89889C9.42746 7.35778 9.71524 8.12778 9.69191 9.29444ZM10.7341 6.18333C10.4852 5.32 11.2163 4.44889 12.0486 3.74111C12.5683 4.49028 12.8992 5.35403 13.0129 6.2587C13.1267 7.16338 13.02 8.08214 12.7019 8.93667C12.103 7.46667 11.0141 7.13222 10.7341 6.16V6.18333Z"/>
    </symbol>
    <symbol viewBox="0 0 24 24" id="icon-rotation">
        <path d="M7.52078 21.48C5.87596 20.7053 4.46081 19.5163 3.41419 18.0296C2.36756 16.5429 1.72542 14.8097 1.55078 13H0.0507812C0.560781 19.16 5.71078 24 12.0008 24L12.6608 23.97L8.85078 20.16L7.52078 21.48ZM8.41078 14.96C8.22078 14.96 8.04078 14.93 7.89078 14.88C7.74142 14.8304 7.60484 14.7484 7.49078 14.64C7.38078 14.54 7.29078 14.42 7.23078 14.27C7.17078 14.13 7.14078 13.97 7.14078 13.8H5.84078C5.84078 14.16 5.91078 14.48 6.05078 14.75C6.19078 15.02 6.38078 15.25 6.61078 15.44C6.85078 15.62 7.12078 15.76 7.43078 15.85C7.73078 15.95 8.05078 16 8.39078 16C8.76078 16 9.11078 15.95 9.42078 15.85C9.74078 15.75 10.0208 15.6 10.2508 15.41C10.4808 15.22 10.6708 14.98 10.8008 14.69C10.9308 14.4 11.0008 14.08 11.0008 13.72C11.0008 13.53 10.9808 13.34 10.9308 13.16C10.8833 12.9783 10.8056 12.8059 10.7008 12.65C10.6008 12.49 10.4608 12.35 10.3008 12.22C10.1308 12.09 9.93078 11.99 9.69078 11.91C10.0522 11.7489 10.3608 11.4889 10.5808 11.16C10.6808 11.01 10.7508 10.86 10.8008 10.7C10.8508 10.54 10.8708 10.38 10.8708 10.22C10.8708 9.86 10.8108 9.54 10.6908 9.26C10.5796 8.99186 10.4045 8.75497 10.1808 8.57C9.98078 8.38 9.71078 8.24 9.41078 8.14C9.10078 8.05 8.76078 8 8.39078 8C8.03078 8 7.70078 8.05 7.39078 8.16C7.09078 8.27 6.82078 8.42 6.60078 8.61C6.39078 8.8 6.22078 9.02 6.09078 9.28C5.97078 9.54 5.91078 9.82 5.91078 10.13H7.21078C7.21078 9.96 7.24078 9.81 7.30078 9.68C7.36078 9.55 7.44078 9.43 7.55078 9.34C7.66078 9.25 7.78078 9.17 7.93078 9.12C8.08078 9.07 8.23078 9.04 8.41078 9.04C8.81078 9.04 9.11078 9.14 9.30078 9.35C9.49078 9.55 9.59078 9.84 9.59078 10.21C9.59078 10.39 9.56078 10.55 9.51078 10.7C9.46106 10.843 9.37489 10.9705 9.26078 11.07C9.15078 11.17 9.01078 11.25 8.85078 11.31C8.69078 11.37 8.49078 11.4 8.27078 11.4H7.50078V12.43H8.27078C8.49078 12.43 8.69078 12.45 8.87078 12.5C9.05078 12.55 9.20078 12.63 9.32078 12.73C9.44078 12.84 9.54078 12.97 9.61078 13.13C9.68078 13.29 9.71078 13.48 9.71078 13.7C9.71078 14.11 9.59078 14.42 9.36078 14.63C9.13078 14.86 8.81078 14.96 8.41078 14.96ZM16.9608 9.04C16.6408 8.71 16.2608 8.45 15.8208 8.27C15.3908 8.09 14.9008 8 14.3608 8H12.0008V16H14.3008C14.8508 16 15.3608 15.91 15.8108 15.73C16.2608 15.55 16.6508 15.3 16.9708 14.97C17.2908 14.64 17.5408 14.24 17.7108 13.78C17.8808 13.31 17.9708 12.79 17.9708 12.21V11.81C17.9708 11.23 17.8808 10.71 17.7108 10.24C17.5308 9.77 17.2808 9.37 16.9608 9.04ZM16.5708 12.2C16.5708 12.62 16.5208 12.99 16.4308 13.33C16.3308 13.66 16.1908 13.95 16.0008 14.18C15.8108 14.41 15.5708 14.59 15.2908 14.71C15.0008 14.83 14.6708 14.89 14.3008 14.89H13.3908V9.12H14.3608C15.0808 9.12 15.6308 9.35 16.0008 9.81C16.3808 10.27 16.5708 10.93 16.5708 11.8V12.2ZM12.0008 0L11.3408 0.03L15.1508 3.84L16.4808 2.51C19.7508 4.06 22.0908 7.23 22.4408 10.99H23.9408C23.4408 4.84 18.2908 0 12.0008 0Z"/>
    </symbol>
    <symbol viewBox="0 0 21 21" id="icon-phone">
        <path d="M20.0652 3.20266L20.0331 3.1826L15.9741 1.18286L11.593 7.02428L13.6086 9.71196C13.5483 10.7255 13.1185 11.6818 12.4005 12.3998C11.6825 13.1178 10.7262 13.5476 9.71259 13.6079L7.02497 11.5923L1.18359 15.9733L3.16669 19.9984L3.18338 20.0324L3.20348 20.0644C3.30931 20.235 3.45702 20.3756 3.63255 20.4728C3.80808 20.5701 4.00559 20.6209 4.20628 20.6202H5.25366C7.27173 20.6202 9.27003 20.2228 11.1345 19.4505C12.9989 18.6782 14.693 17.5462 16.12 16.1192C17.547 14.6922 18.6789 12.9982 19.4512 11.1337C20.2235 9.26925 20.621 7.27095 20.621 5.25288V4.20546C20.6216 4.00477 20.5709 3.80726 20.4736 3.63173C20.3763 3.4562 20.2357 3.30849 20.0652 3.20266ZM19.121 5.25288C19.121 12.8994 12.9001 19.1202 5.25366 19.1202H4.40616L3.07931 16.4267L7.02525 13.4672L9.22214 15.1148H9.47213C10.9684 15.1131 12.403 14.518 13.461 13.4599C14.5191 12.4019 15.1142 10.9674 15.1159 9.47107V9.22108L13.4683 7.02424L16.4274 3.07853L19.121 4.40561V5.25288Z" stroke-width="0.4"/>
    </symbol>
    <symbol viewBox="0 0 20 16" id="icon-twitter">
        <path d="M17.633 3.99701C17.646 4.17201 17.646 4.34601 17.646 4.52001C17.646 9.84501 13.593 15.981 6.186 15.981C3.904 15.981 1.784 15.32 0 14.172C0.324 14.209 0.636 14.222 0.973 14.222C2.78599 14.2264 4.54765 13.6202 5.974 12.501C5.13342 12.4858 4.31858 12.2085 3.64324 11.7077C2.9679 11.207 2.46578 10.5079 2.207 9.70801C2.456 9.74501 2.706 9.77001 2.968 9.77001C3.329 9.77001 3.692 9.72001 4.029 9.63301C3.11676 9.44883 2.29647 8.95436 1.70762 8.2337C1.11876 7.51303 0.797693 6.61066 0.799 5.68001V5.63001C1.336 5.92901 1.959 6.11601 2.619 6.14101C2.06609 5.7736 1.61272 5.27504 1.29934 4.6898C0.98596 4.10457 0.822313 3.45087 0.823 2.78701C0.823 2.03901 1.022 1.35301 1.371 0.755013C2.38314 2.00003 3.6455 3.01857 5.07634 3.74467C6.50717 4.47077 8.07456 4.88823 9.677 4.97001C9.615 4.67001 9.577 4.35901 9.577 4.04701C9.57674 3.51797 9.68075 2.99407 9.88308 2.50525C10.0854 2.01643 10.3821 1.57229 10.7562 1.1982C11.1303 0.824114 11.5744 0.527424 12.0632 0.325091C12.5521 0.122758 13.076 0.0187501 13.605 0.0190129C14.765 0.0190129 15.812 0.505013 16.548 1.29101C17.4498 1.11663 18.3145 0.787435 19.104 0.318013C18.8034 1.24883 18.1738 2.03812 17.333 2.53801C18.1328 2.44679 18.9144 2.23647 19.652 1.91401C19.1011 2.71711 18.4185 3.42136 17.633 3.99701Z"/>
    </symbol>
    <symbol viewBox="0 0 12 20" id="icon-ok">
        <path d="M4.97417 14.011C3.44317 13.851 2.06217 13.471 0.880166 12.54C0.733166 12.424 0.581166 12.312 0.448166 12.183C-0.0698339 11.683 -0.121834 11.109 0.288166 10.519C0.638166 10.013 1.22617 9.87799 1.83717 10.169C1.95517 10.224 2.06717 10.295 2.17617 10.37C4.37917 11.894 7.40617 11.936 9.61717 10.439C9.83717 10.269 10.0712 10.131 10.3422 10.061C10.8702 9.92499 11.3622 10.12 11.6452 10.585C11.9692 11.115 11.9652 11.635 11.5662 12.046C10.9552 12.679 10.2192 13.136 9.40217 13.455C8.62917 13.757 7.78217 13.909 6.94517 14.009C7.07117 14.148 7.13117 14.216 7.21017 14.296C8.34717 15.446 9.49017 16.593 10.6242 17.747C11.0102 18.141 11.0912 18.628 10.8782 19.086C10.6452 19.586 10.1252 19.915 9.61417 19.88C9.29117 19.857 9.03917 19.695 8.81417 19.468C7.95617 18.598 7.08217 17.744 6.24117 16.858C5.99617 16.6 5.87817 16.649 5.66217 16.873C4.79917 17.768 3.92217 18.649 3.03817 19.526C2.64217 19.919 2.17017 19.99 1.71017 19.766C1.22217 19.526 0.910166 19.025 0.935166 18.52C0.951166 18.178 1.11817 17.918 1.35117 17.684C2.47717 16.552 3.59917 15.417 4.72217 14.284C4.79617 14.208 4.86617 14.128 4.97417 14.011Z"/>
        <path d="M5.90629 10.069C3.17429 10.059 0.934294 7.77899 0.949294 5.02299C0.965294 2.23699 3.20729 -0.00701419 5.96629 -1.41851e-05C8.73029 0.00698582 10.9493 2.28499 10.9363 5.09999C10.9213 7.84999 8.66629 10.078 5.90629 10.069ZM8.38929 5.02899C8.39114 4.70694 8.32932 4.38771 8.20738 4.08964C8.08545 3.79157 7.90581 3.52053 7.67878 3.29211C7.45176 3.0637 7.18183 2.8824 6.88451 2.75864C6.58719 2.63489 6.26834 2.57111 5.94629 2.57099C5.62122 2.57067 5.29933 2.63513 4.99945 2.76061C4.69956 2.88608 4.42768 3.07005 4.19968 3.30177C3.97169 3.53349 3.79215 3.80831 3.67155 4.11019C3.55095 4.41207 3.49171 4.73496 3.49729 5.05999C3.49768 5.38216 3.56179 5.70107 3.68592 5.99837C3.81006 6.29566 3.99177 6.56547 4.2206 6.79226C4.44943 7.01904 4.72086 7.19833 5.01926 7.31979C5.31765 7.44125 5.63713 7.50249 5.95929 7.49999C6.28146 7.49882 6.60019 7.43385 6.8971 7.30881C7.19401 7.18377 7.46321 7.00116 7.68915 6.7715C7.91508 6.54184 8.09328 6.2697 8.21345 5.97079C8.33363 5.67188 8.39339 5.35212 8.38929 5.02999V5.02899Z"/>
    </symbol>
    <symbol viewBox="0 0 21 12" id="icon-vk">
        <path d="M19.579 0.855011C19.719 0.390011 19.579 0.0490112 18.917 0.0490112H16.724C16.166 0.0490112 15.911 0.344012 15.771 0.668012C15.771 0.668012 14.656 3.38701 13.076 5.15001C12.566 5.66301 12.333 5.82501 12.055 5.82501C11.916 5.82501 11.714 5.66301 11.714 5.19801V0.855011C11.714 0.297011 11.553 0.0490112 11.088 0.0490112H7.642C7.294 0.0490112 7.084 0.307011 7.084 0.553011C7.084 1.08101 7.874 1.20301 7.955 2.69101V5.91901C7.955 6.62601 7.828 6.75501 7.548 6.75501C6.805 6.75501 4.997 4.02601 3.924 0.902011C3.715 0.295011 3.504 0.0500116 2.944 0.0500116H0.752C0.125 0.0500116 0 0.345012 0 0.669012C0 1.25101 0.743 4.13101 3.461 7.94001C5.273 10.541 7.824 11.951 10.148 11.951C11.541 11.951 11.713 11.638 11.713 11.098V9.13201C11.713 8.50601 11.846 8.38001 12.287 8.38001C12.611 8.38001 13.169 8.54401 14.47 9.79701C15.956 11.283 16.202 11.95 17.037 11.95H19.229C19.855 11.95 20.168 11.637 19.988 11.019C19.791 10.404 19.081 9.50901 18.139 8.45001C17.627 7.84601 16.862 7.19601 16.629 6.87101C16.304 6.45201 16.398 6.26701 16.629 5.89501C16.63 5.89601 19.301 2.13401 19.579 0.855011Z"/>
    </symbol>
    <symbol viewBox="0 0" id="icon-">
    </symbol>
</svg>