<svg width="1107" height="597" viewBox="0 0 1107 597" fill="none" xmlns="http://www.w3.org/2000/svg">
<g opacity="0.1">
<mask id="mask0" mask-type="alpha" maskUnits="userSpaceOnUse" x="0" y="0" width="1107" height="1138">
<path d="M645.639 107.972L621.928 196.463C570.537 186.404 517.717 186.692 466.693 197.311C420.579 155.746 365.021 125.607 304.756 109.461L289.492 166.428C328.942 176.937 366.131 194.541 399.152 218.337C346.182 239.974 298.978 273.03 261.013 315.074C223.047 357.117 195.288 407.078 179.776 461.28L123.15 446.107L119.534 459.602L176.16 474.775C162.602 529.551 161.729 586.746 173.605 642.189C185.482 697.631 209.809 749.923 244.812 795.251C204.231 799.51 163.105 796.252 123.573 785.646L108.339 842.502C168.628 858.666 231.853 860.268 292.564 847.169C331.298 882.019 376.736 908.914 426.143 926.235L402.729 1013.62L460.714 1029.16L484.129 941.772C535.537 951.616 588.329 951.119 639.286 940.31C685.378 981.904 740.944 1012.05 801.223 1028.16L816.457 971.304C777.042 960.779 739.897 943.146 706.939 919.314C760.014 897.598 807.328 864.483 845.425 822.387C883.523 780.291 911.442 730.278 927.143 676L983.77 691.173L987.386 677.678L930.759 662.505C944.396 607.784 945.299 550.617 933.403 495.213C921.507 439.809 897.114 387.578 862.019 342.361C902.318 338.266 943.132 341.563 982.376 352.085L997.64 295.119C937.361 278.85 874.134 277.038 813.336 289.838C774.642 255.098 729.245 228.333 679.894 211.165L703.398 123.448L645.639 107.972ZM606.871 252.655L576.787 364.928C566.739 334.017 552.718 304.443 535.063 276.924C548.159 266.852 561.811 257.489 575.959 248.877C586.317 249.612 596.634 250.873 606.871 252.655ZM664.857 268.192C674.975 271.935 684.899 276.177 694.589 280.901C702.373 295.177 709.384 309.839 715.595 324.823C686.332 339.82 659.191 358.445 634.833 380.244L664.857 268.192ZM552.344 247.766C543.873 253.558 535.599 259.521 527.492 265.766C523.636 260.228 519.606 254.88 515.464 249.502C527.721 248.16 540.054 247.506 552.404 247.545L552.344 247.766ZM715.429 291.465C725.992 297.303 736.234 303.688 746.112 310.593C739.978 313.099 733.815 315.716 727.848 318.503C724.117 309.323 719.731 300.323 715.429 291.465ZM449.146 262.794C461.143 275.93 472.076 289.959 481.845 304.752C471.277 315.198 461.157 326.239 451.574 337.542L353.61 311.293C382.491 290.113 414.76 273.732 449.146 262.794ZM796.268 355.805C820.719 382.466 840.591 412.822 855.095 445.666L757.357 419.477C754.655 404.645 751.358 389.772 747.346 375.3C763.099 367.567 779.456 361.049 796.268 355.805ZM734.634 381.97C737.604 393.081 740.206 404.211 742.295 415.441L700.165 404.152C711.182 396.083 722.692 388.675 734.634 381.97ZM489.518 316.885C496.368 328.428 502.494 340.363 507.861 352.624L466.523 341.548C473.888 333.089 481.676 324.861 489.518 316.885ZM339.372 322.297L441.3 349.609C403.981 397.247 376.374 451.536 359.962 509.561L237.875 476.848C255.461 416.452 290.976 362.725 339.939 322.449L339.372 322.297ZM456.589 353.706L514.688 369.273C537.002 428.625 540.896 492.925 525.878 554.018L374.912 513.566C391.295 455.47 419.115 401.191 456.816 353.766L456.589 353.706ZM685.701 415.096L745.159 431.028C754.211 490.945 751.164 551.883 736.19 610.371L584.091 569.616C601.683 509.223 637.197 455.498 686.154 415.217L685.701 415.096ZM759.542 434.882L861.47 462.193C883.769 521.548 887.664 585.844 872.66 646.938L750.347 614.164C765.216 555.707 768.415 494.857 759.769 434.942L759.542 434.882ZM234.033 490.282L356.913 523.207C342.062 581.765 338.92 642.714 347.658 702.711L245.163 675.248C222.845 615.818 218.971 551.44 234.033 490.282ZM371.069 527.001L522.036 567.452C504.283 627.849 468.776 681.607 419.914 722.072L362.607 706.717C353.358 646.709 356.233 585.642 371.069 527.001ZM580.248 583.05L732.574 623.866C716.102 682.069 688.059 736.391 650.044 783.735L591.379 768.016C569.172 708.565 565.299 644.219 580.248 583.05ZM746.504 627.598L869.044 660.433C851.496 720.922 815.954 774.735 766.922 815.052L664.994 787.741C702.45 740.083 730.193 685.75 746.731 627.659L746.504 627.598ZM251.937 691.645L350.128 717.955C352.776 732.536 356.192 746.967 360.151 761.187C344.182 769.356 327.529 776.196 310.366 781.636C286.035 754.913 266.297 724.513 251.937 691.645ZM365.191 721.991L405.962 732.916C395.232 740.73 384.058 747.948 372.493 754.535C369.66 743.818 367.256 732.859 365.191 721.991ZM598.153 784.413L640.396 795.732C632.859 804.383 625.011 812.832 616.913 820.857C609.924 809.08 603.659 796.91 598.153 784.413ZM655.346 799.738L753.083 825.927C724.092 847.324 691.651 863.865 657.059 874.887C645.127 861.775 634.269 847.765 624.587 832.991C635.418 822.434 645.684 811.335 655.346 799.738ZM471.866 756.502L441.634 869.329C432.328 866.006 423.2 862.018 414.358 857.871C406.103 842.852 398.692 827.41 392.158 811.613C421.062 796.566 447.863 777.974 471.925 756.281L471.866 756.502ZM529.703 772.593C539.847 803.439 553.874 832.966 571.457 860.486C558.356 870.6 544.694 880 530.531 888.644C520.317 887.804 509.966 886.571 499.649 884.755L529.703 772.593ZM379.821 817.792C384.053 827.818 388.685 837.714 393.459 847.529C382.117 841.02 371.134 833.921 360.557 826.264C367.119 823.518 373.539 820.851 379.821 817.792ZM579.338 871.846C583.195 877.384 587.451 882.793 591.593 888.171C579.073 889.51 566.472 890.092 553.861 889.916C562.558 884.184 571.035 877.919 579.397 871.624L579.338 871.846Z" fill="#C4C4C4"/>
</mask>
<g mask="url(#mask0)">
<path d="M237.005 -0.0871582L1120.64 236.682" stroke="white"/>
<path d="M235.571 5.26379L1119.21 242.033" stroke="white"/>
<path d="M234.136 10.6149L1117.77 247.384" stroke="white"/>
<path d="M232.702 15.9663L1116.34 252.736" stroke="white"/>
<path d="M231.269 21.3176L1114.9 258.087" stroke="white"/>
<path d="M229.835 26.6691L1113.47 263.438" stroke="white"/>
<path d="M228.401 32.0201L1112.04 268.789" stroke="white"/>
<path d="M226.968 37.3716L1110.6 274.141" stroke="white"/>
<path d="M225.534 42.723L1109.17 279.492" stroke="white"/>
<path d="M224.099 48.0743L1107.73 284.844" stroke="white"/>
<path d="M222.665 53.4255L1106.3 290.195" stroke="white"/>
<path d="M221.231 58.7766L1104.87 295.546" stroke="white"/>
<path d="M219.798 64.1281L1103.43 300.897" stroke="white"/>
<path d="M218.364 69.4791L1102 306.248" stroke="white"/>
<path d="M216.931 74.8306L1100.57 311.6" stroke="white"/>
<path d="M215.497 80.182L1099.13 316.951" stroke="white"/>
<path d="M214.061 85.5333L1097.7 322.303" stroke="white"/>
<path d="M212.627 90.8845L1096.26 327.654" stroke="white"/>
<path d="M211.193 96.2358L1094.83 333.005" stroke="white"/>
<path d="M209.76 101.587L1093.39 338.356" stroke="white"/>
<path d="M208.326 106.939L1091.96 343.708" stroke="white"/>
<path d="M206.893 112.29L1090.53 349.059" stroke="white"/>
<path d="M205.459 117.641L1089.09 354.41" stroke="white"/>
<path d="M204.025 122.993L1087.66 359.762" stroke="white"/>
<path d="M202.592 128.344L1086.23 365.113" stroke="white"/>
<path d="M201.156 133.695L1084.79 370.464" stroke="white"/>
<path d="M199.723 139.047L1083.36 375.816" stroke="white"/>
<path d="M198.289 144.398L1081.92 381.167" stroke="white"/>
<path d="M196.855 149.749L1080.49 386.518" stroke="white"/>
<path d="M195.422 155.1L1079.06 391.869" stroke="white"/>
<path d="M193.988 160.452L1077.62 397.221" stroke="white"/>
<path d="M192.553 165.803L1076.19 402.572" stroke="white"/>
<path d="M191.119 171.154L1074.75 407.923" stroke="white"/>
<path d="M189.686 176.505L1073.32 413.275" stroke="white"/>
<path d="M188.252 181.857L1071.89 418.626" stroke="white"/>
<path d="M186.818 187.208L1070.45 423.977" stroke="white"/>
<path d="M185.385 192.559L1069.02 429.329" stroke="white"/>
<path d="M183.951 197.911L1067.59 434.68" stroke="white"/>
<path d="M182.518 203.262L1066.15 440.031" stroke="white"/>
<path d="M181.084 208.613L1064.72 445.383" stroke="white"/>
<path d="M179.65 213.965L1063.28 450.734" stroke="white"/>
<path d="M178.215 219.316L1061.85 456.085" stroke="white"/>
<path d="M176.781 224.667L1060.42 461.437" stroke="white"/>
<path d="M175.348 230.018L1058.98 466.788" stroke="white"/>
<path d="M173.914 235.37L1057.55 472.139" stroke="white"/>
<path d="M172.478 240.721L1056.11 477.49" stroke="white"/>
<path d="M171.044 246.073L1054.68 482.842" stroke="white"/>
<path d="M169.61 251.424L1053.24 488.193" stroke="white"/>
<path d="M168.177 256.775L1051.81 493.544" stroke="white"/>
<path d="M166.743 262.126L1050.38 498.896" stroke="white"/>
<path d="M165.31 267.478L1048.94 504.247" stroke="white"/>
<path d="M163.876 272.829L1047.51 509.598" stroke="white"/>
<path d="M162.442 278.18L1046.08 514.95" stroke="white"/>
<path d="M161.009 283.532L1044.64 520.301" stroke="white"/>
<path d="M159.575 288.883L1043.21 525.652" stroke="white"/>
<path d="M158.142 294.234L1041.78 531.004" stroke="white"/>
<path d="M156.708 299.586L1040.34 536.355" stroke="white"/>
<path d="M155.274 304.937L1038.91 541.707" stroke="white"/>
<path d="M153.839 310.288L1037.47 547.057" stroke="white"/>
<path d="M152.405 315.639L1036.04 552.409" stroke="white"/>
<path d="M150.97 320.991L1034.6 557.76" stroke="white"/>
<path d="M149.536 326.342L1033.17 563.111" stroke="white"/>
<path d="M148.103 331.693L1031.74 568.463" stroke="white"/>
<path d="M146.669 337.045L1030.3 573.814" stroke="white"/>
<path d="M145.235 342.396L1028.87 579.165" stroke="white"/>
<path d="M143.802 347.747L1027.44 584.517" stroke="white"/>
<path d="M142.368 353.099L1026 589.868" stroke="white"/>
<path d="M140.935 358.45L1024.57 595.219" stroke="white"/>
<path d="M139.501 363.802L1023.14 600.571" stroke="white"/>
<path d="M138.067 369.153L1021.7 605.922" stroke="white"/>
<path d="M136.634 374.504L1020.27 611.273" stroke="white"/>
<path d="M135.2 379.855L1018.83 616.624" stroke="white"/>
<path d="M133.767 385.207L1017.4 621.976" stroke="white"/>
<path d="M132.333 390.558L1015.97 627.327" stroke="white"/>
<path d="M130.895 395.909L1014.53 632.678" stroke="white"/>
<path d="M129.461 401.261L1013.1 638.03" stroke="white"/>
<path d="M128.027 406.612L1011.66 643.381" stroke="white"/>
<path d="M126.594 411.963L1010.23 648.732" stroke="white"/>
<path d="M125.16 417.314L1008.79 654.083" stroke="white"/>
<path d="M123.727 422.666L1007.36 659.435" stroke="white"/>
<path d="M122.293 428.017L1005.93 664.786" stroke="white"/>
<path d="M120.859 433.368L1004.49 670.137" stroke="white"/>
<path d="M119.426 438.72L1003.06 675.489" stroke="white"/>
<path d="M117.992 444.071L1001.63 680.84" stroke="white"/>
<path d="M116.559 449.422L1000.19 686.191" stroke="white"/>
<path d="M115.125 454.773L998.76 691.543" stroke="white"/>
<path d="M113.691 460.125L997.326 696.894" stroke="white"/>
<path d="M112.258 465.476L995.892 702.245" stroke="white"/>
<path d="M110.824 470.827L994.459 707.597" stroke="white"/>
<path d="M109.391 476.179L993.025 712.948" stroke="white"/>
<path d="M107.953 481.53L991.588 718.3" stroke="white"/>
<path d="M106.52 486.881L990.154 723.65" stroke="white"/>
<path d="M105.086 492.232L988.72 729.002" stroke="white"/>
<path d="M103.652 497.584L987.287 734.353" stroke="white"/>
<path d="M102.219 502.935L985.853 739.704" stroke="white"/>
<path d="M100.785 508.286L984.42 745.056" stroke="white"/>
<path d="M99.3516 513.638L982.986 750.407" stroke="white"/>
<path d="M97.918 518.989L981.553 755.759" stroke="white"/>
<path d="M96.4844 524.34L980.119 761.11" stroke="white"/>
<path d="M95.0508 529.692L978.685 766.461" stroke="white"/>
<path d="M93.6172 535.043L977.252 771.812" stroke="white"/>
<path d="M92.1836 540.395L975.818 777.164" stroke="white"/>
<path d="M90.75 545.746L974.385 782.515" stroke="white"/>
<path d="M89.3164 551.097L972.951 787.866" stroke="white"/>
<path d="M87.8828 556.448L971.517 793.218" stroke="white"/>
<path d="M86.4492 561.8L970.084 798.569" stroke="white"/>
<path d="M85.0107 567.151L968.645 803.92" stroke="white"/>
<path d="M83.5771 572.502L967.212 809.272" stroke="white"/>
<path d="M82.1436 577.854L965.778 814.623" stroke="white"/>
<path d="M80.71 583.205L964.344 819.974" stroke="white"/>
<path d="M79.2764 588.556L962.911 825.325" stroke="white"/>
<path d="M77.8428 593.907L961.477 830.677" stroke="white"/>
</g>
</g>
</svg>
