<svg width="133" height="64" viewBox="0 0 133 64" fill="none" xmlns="http://www.w3.org/2000/svg"><path d="M65.33 0v3.442a14.68 14.68 0 00-5.612 1.54 14.756 14.756 0 00-6.716-1.614v2.216a12.54 12.54 0 014.474.817 14.236 14.236 0 00-4.063 4.854 13.924 13.924 0 00-1.523 6.095h-2.197v.525h2.197c.04 2.12.564 4.203 1.532 6.1a14.313 14.313 0 004.063 4.861c-1.428.55-2.949.831-4.483.83v2.212c2.34 0 4.645-.556 6.716-1.622a14.79 14.79 0 005.603 1.57v3.399h2.25v-3.399a14.683 14.683 0 005.604-1.561 14.72 14.72 0 006.715 1.613v-2.211a12.497 12.497 0 01-4.47-.822 14.322 14.322 0 004.075-4.864 14.011 14.011 0 001.538-6.106h2.198v-.525h-2.198a13.93 13.93 0 00-1.527-6.096A14.24 14.24 0 0075.438 6.4a12.51 12.51 0 014.452-.817V3.368a14.788 14.788 0 00-6.724 1.6 14.71 14.71 0 00-5.595-1.557V0H65.33zm0 5.627v4.367a14.316 14.316 0 00-2.365-2.788c.377-.493.78-.965 1.209-1.416.382-.074.768-.128 1.156-.163zm2.25 0c.403.037.803.095 1.2.172.42.442.816.906 1.187 1.39a14.383 14.383 0 00-2.387 2.796V5.627zm-4.272.353c-.25.292-.492.59-.725.895a15.805 15.805 0 00-.593-.474c.43-.167.87-.311 1.318-.43v.009zm6.329 0c.439.109.872.241 1.296.396-.197.15-.395.305-.584.464-.224-.297-.47-.58-.712-.86zm-9.92 1.549c.562.36 1.094.762 1.592 1.204a18.7 18.7 0 00-.778 1.484h-3.802a12.43 12.43 0 012.989-2.688zm13.471 0a12.402 12.402 0 013.002 2.688h-3.793a18.931 18.931 0 00-.791-1.505c.495-.434 1.024-.83 1.582-1.183zM71.21 9.077c.216.375.418.753.603 1.14h-1.636c.321-.4.666-.78 1.033-1.14zm-9.506.022c.36.352.698.726 1.01 1.118h-1.603c.184-.378.387-.753.593-1.118zm-5.384 1.656h3.956a17.471 17.471 0 00-1.394 6.595h-4.737a11.79 11.79 0 012.197-6.595h-.022zm4.549 0h2.255a11.76 11.76 0 012.197 6.595h-5.858c.03-2.267.51-4.508 1.415-6.595h-.009zm8.891 0h2.307a16.978 16.978 0 011.416 6.595H67.58a11.794 11.794 0 012.198-6.595h-.018zm2.865 0h3.956a11.768 11.768 0 012.197 6.595h-4.746a17.32 17.32 0 00-1.398-6.595h-.008zm-18.489 7.12h4.768c.03 2.27.508 4.511 1.407 6.603h-3.978a11.772 11.772 0 01-2.197-6.603zm5.318 0h5.858a11.915 11.915 0 01-2.197 6.603H60.89a17.003 17.003 0 01-1.437-6.603zm8.117 0h5.912a17.003 17.003 0 01-1.438 6.603H69.77a11.84 11.84 0 01-2.198-6.603zm6.452 0h4.755a11.78 11.78 0 01-2.197 6.603h-3.956a17.503 17.503 0 001.407-6.603h-.009zm-17.285 7.133h3.81c.237.503.501.993.782 1.47-.498.453-1.035.863-1.604 1.227a12.378 12.378 0 01-2.988-2.697zm4.395 0h1.582c-.313.387-.647.758-1.002 1.11-.207-.362-.4-.736-.58-1.11zm9.04 0h1.64c-.19.387-.392.77-.607 1.14-.367-.36-.712-.74-1.033-1.14zm2.22 0h3.792a12.409 12.409 0 01-3.001 2.71c-.56-.36-1.089-.763-1.582-1.205.29-.488.553-.99.79-1.505zm-7.063.215v4.388c-.37-.03-.738-.086-1.099-.15a17.482 17.482 0 01-1.252-1.463c.9-.828 1.69-1.763 2.35-2.784v.009zm2.25.021a14.607 14.607 0 002.365 2.784c-.377.494-.78.968-1.209 1.42-.378.068-.765.124-1.156.158v-4.362zm-4.988 3.098c.25.322.514.636.782.946-.474-.126-.94-.277-1.397-.452.21-.163.417-.322.615-.494zm7.748.021c.194.164.4.319.602.473-.44.17-.89.314-1.349.43.26-.292.505-.602.747-.911v.008zM.022 44.69l3.107-.19c.032.404.173.793.409 1.127.174.208.396.373.647.482.25.11.524.16.799.146.386.024.769-.089 1.077-.318a.977.977 0 00.378-.744.93.93 0 00-.356-.719 4.225 4.225 0 00-1.675-.598c-1.433-.314-2.452-.735-3.076-1.256a2.527 2.527 0 01-.695-.895 2.476 2.476 0 01-.228-1.101 2.653 2.653 0 01.474-1.502c.35-.5.845-.888 1.42-1.114a6.754 6.754 0 012.597-.404c1.35 0 2.382.245 3.077.736.37.279.675.633.893 1.037.219.405.346.85.373 1.307l-3.077.177a1.597 1.597 0 00-.514-1.016 1.692 1.692 0 00-1.086-.318 1.34 1.34 0 00-.879.24.714.714 0 00-.29.573.576.576 0 00.242.43 2.73 2.73 0 001.094.383 13.93 13.93 0 013.077.908c.55.25 1.016.649 1.345 1.148.29.459.443.988.44 1.528a3.208 3.208 0 01-.568 1.832 3.5 3.5 0 01-1.569 1.27 6.488 6.488 0 01-2.544.43c-1.798 0-3.046-.336-3.736-1.016A3.954 3.954 0 010 44.673l.022.016zm11.031-6.906h2.997v5.33l2.197-2.486h3.613l-2.747 2.624 2.9 4.857h-3.3l-1.556-3.011-1.107 1.058v1.953h-2.997V37.784zm9.949 0h2.936v1.95h-2.936v-1.95zm0 2.844h2.936v7.481h-2.936v-7.481zm4.822 10.334V40.637h2.742v1.106c.282-.38.637-.702 1.046-.947.44-.222.93-.336 1.424-.331a2.8 2.8 0 011.34.277c.416.202.773.503 1.038.876a4.66 4.66 0 01.84 2.843c0 1.248-.305 2.2-.915 2.857-.29.32-.646.573-1.047.744-.4.17-.833.252-1.269.241a3.373 3.373 0 01-1.24-.223 2.963 2.963 0 01-1.001-.672v3.575h-2.958v-.021zm2.94-6.574c-.04.471.096.94.382 1.321a1.245 1.245 0 00.967.43 1.074 1.074 0 00.857-.43 2.19 2.19 0 00.348-1.402 2.044 2.044 0 00-.36-1.343 1.09 1.09 0 00-.388-.317 1.115 1.115 0 00-.492-.113 1.204 1.204 0 00-.94.43 2.116 2.116 0 00-.374 1.403v.021zm6.373 1.648l2.91-.271c.07.294.247.553.5.727.251.174.56.252.866.22.323.02.643-.067.91-.246a.546.546 0 00.255-.456.521.521 0 00-.092-.29.538.538 0 00-.238-.192 6.55 6.55 0 00-1.261-.297 12.938 12.938 0 01-2.118-.482 2.218 2.218 0 01-1.002-.752 1.913 1.913 0 01-.41-1.205 1.965 1.965 0 01.44-1.29 2.64 2.64 0 011.209-.805 6.572 6.572 0 012.07-.263 7.429 7.429 0 012.017.203c.41.123.782.341 1.086.636.321.334.568.73.725 1.162l-2.782.271a.89.89 0 00-.36-.525 1.479 1.479 0 00-.831-.228c-.255-.02-.51.042-.725.176a.516.516 0 00-.224.43.424.424 0 00.07.262.438.438 0 00.215.169c.404.14.826.225 1.253.254a8.62 8.62 0 012.197.451c.44.165.82.452 1.095.826.246.344.379.755.378 1.175a2.29 2.29 0 01-.4 1.265 2.72 2.72 0 01-1.262.976 6.192 6.192 0 01-2.342.362c-1.398 0-2.391-.194-2.989-.585a2.644 2.644 0 01-1.138-1.665l-.022-.013zm9.757-8.561H45.9v6.061l3.644-3.097h1.476l-4.311 3.665 4.562 4.005h-1.433l-3.956-3.441v3.441h-1.006l.018-10.634zm11.128 2.77a3.95 3.95 0 011.644.32c.518.224.98.555 1.353.971a4.072 4.072 0 011.087 2.808 4.075 4.075 0 01-1.149 2.785 4.15 4.15 0 01-1.348.888 4.223 4.223 0 01-3.188 0 4.153 4.153 0 01-1.348-.888 4.063 4.063 0 01-1.151-2.786 4.06 4.06 0 011.094-2.807 3.878 3.878 0 011.356-.972 3.954 3.954 0 011.65-.319zm0 .964a2.96 2.96 0 00-1.18.23 2.906 2.906 0 00-.983.678 3.05 3.05 0 00-.677 1.01c-.154.377-.23.781-.224 1.188a3.06 3.06 0 00.413 1.553c.26.463.645.847 1.112 1.11a3.214 3.214 0 003.077 0 2.934 2.934 0 001.112-1.11 3.107 3.107 0 00.413-1.553 2.955 2.955 0 00-.225-1.19 3.006 3.006 0 00-.685-1.008 2.9 2.9 0 00-.979-.676 2.956 2.956 0 00-1.174-.232zm5.938-.77h1.01v1.325a3.913 3.913 0 011.081-1.071 3.153 3.153 0 011.609-.43c.372-.003.74.072 1.08.219.321.13.608.328.84.58.255.309.445.662.563 1.042A3.685 3.685 0 0169.4 40.73a3.022 3.022 0 011.626-.469 2.616 2.616 0 011.437.4c.418.273.74.665.923 1.123.235.693.338 1.422.303 2.151v4.173h-1.033v-4.186a5.43 5.43 0 00-.175-1.695 1.547 1.547 0 00-.616-.744 1.898 1.898 0 00-1.041-.28 2.278 2.278 0 00-1.319.43 2.43 2.43 0 00-.879 1.128 7.075 7.075 0 00-.277 2.353v3.011h-1.006V44.2a6.74 6.74 0 00-.176-1.885 1.622 1.622 0 00-.62-.795 1.826 1.826 0 00-1.046-.297 2.284 2.284 0 00-1.318.408 2.458 2.458 0 00-.901 1.11 5.905 5.905 0 00-.294 2.151v3.218h-1.029v-7.67zm13.865 0h1.006v1.41a4 4 0 011.376-1.204 3.745 3.745 0 011.736-.4 3.95 3.95 0 011.556.295 3.88 3.88 0 011.305.88c.385.368.69.81.894 1.297a3.8 3.8 0 01.297 1.538 3.89 3.89 0 01-.292 1.554 3.957 3.957 0 01-.89 1.32 3.982 3.982 0 01-2.149 1.122 4.033 4.033 0 01-2.413-.322 4.316 4.316 0 01-1.42-1.136v4.125h-1.006v-10.48zm4.039.761a3.02 3.02 0 00-1.195.222c-.378.154-.72.383-1.003.673-.291.293-.52.64-.67 1.022a2.98 2.98 0 00-.209 1.198c-.007.548.13 1.09.4 1.57.268.466.664.85 1.143 1.106a3.26 3.26 0 001.573.43 3.009 3.009 0 001.53-.43 3.041 3.041 0 001.138-1.153 3.039 3.039 0 000-3.093 3.011 3.011 0 00-1.126-1.132 3.096 3.096 0 00-1.56-.409l-.021-.004zm12.614 4.362l.852.43a4.676 4.676 0 01-.967 1.291 3.94 3.94 0 01-1.235.749 4.36 4.36 0 01-1.547.258 3.811 3.811 0 01-1.645-.279 3.738 3.738 0 01-1.357-.952 4.093 4.093 0 01-1.08-2.779 4.045 4.045 0 01.913-2.58 3.73 3.73 0 011.376-1.097 3.813 3.813 0 011.736-.354 3.939 3.939 0 011.784.363 3.852 3.852 0 011.416 1.122c.59.75.9 1.677.879 2.624h-7.076c-.01.814.306 1.6.879 2.19a2.821 2.821 0 002.087.86c.398 0 .793-.07 1.165-.206.353-.12.68-.304.963-.543.34-.318.629-.685.857-1.088v-.009zm0-2.06a3.173 3.173 0 00-.59-1.26 2.781 2.781 0 00-1.019-.762 3.172 3.172 0 00-1.319-.288 2.91 2.91 0 00-1.982.722 3.253 3.253 0 00-.918 1.588h5.828zm3.867-5.912h1.01v2.849h1.596v.86h-1.595v6.81h-1.011v-6.818h-1.376v-.86h1.376v-2.84zm11.932 2.849v7.67h-.989v-1.32c-.387.472-.873.86-1.424 1.135a4.077 4.077 0 01-2.418.318 4.032 4.032 0 01-2.157-1.118 3.97 3.97 0 01-.888-1.32 3.891 3.891 0 01-.29-1.553 3.827 3.827 0 01.297-1.537c.204-.487.507-.93.89-1.299a3.9 3.9 0 011.308-.879 3.967 3.967 0 011.558-.295c.61-.01 1.214.127 1.758.4.549.29 1.02.703 1.375 1.205v-1.411l.98.004zm-4.034.761a3.1 3.1 0 00-1.562.408 3.013 3.013 0 00-1.128 1.133 3.063 3.063 0 00-.44 1.548c.005.544.157 1.077.44 1.545.267.478.662.877 1.143 1.152.462.28.995.428 1.538.43a3.217 3.217 0 001.569-.43 2.89 2.89 0 001.143-1.105 3.12 3.12 0 00.399-1.57 2.977 2.977 0 00-.208-1.198 3.026 3.026 0 00-.671-1.022 2.971 2.971 0 00-1.003-.672 3.023 3.023 0 00-1.194-.223l-.026.004zm6.298-.761h1.006v1.377a4.15 4.15 0 011.341-1.18 3.357 3.357 0 011.604-.39 2.813 2.813 0 011.56.43 2.63 2.63 0 011.007 1.178c.254.742.365 1.524.325 2.306v3.95h-1.007v-3.657a8.726 8.726 0 00-.114-1.768 1.94 1.94 0 00-.672-1.145 2.063 2.063 0 00-1.319-.383 2.51 2.51 0 00-1.639.59 2.78 2.78 0 00-.958 1.467 9.858 9.858 0 00-.145 2.086v2.81h-1.007l.018-7.671zm12.943.843l-.65.654a2.337 2.337 0 00-1.578-.766 1.19 1.19 0 00-.839.319.955.955 0 00-.352.735c.009.269.117.526.303.723a4.14 4.14 0 001.213.809 4.522 4.522 0 011.53 1.101c.261.35.4.772.395 1.205a2.113 2.113 0 01-.677 1.6 2.326 2.326 0 01-.777.496 2.367 2.367 0 01-.915.158 3.015 3.015 0 01-1.318-.288 2.806 2.806 0 01-1.02-.796l.633-.706c.192.252.439.46.722.609.283.148.596.234.917.252.381.008.75-.13 1.029-.383a1.171 1.171 0 00.439-.895 1.121 1.121 0 00-.281-.753 4.635 4.635 0 00-1.27-.817 4.082 4.082 0 01-1.442-1.054 2 2 0 01-.382-1.192 1.914 1.914 0 01.611-1.454 2.148 2.148 0 011.538-.58 3.24 3.24 0 012.198 1.04l-.027-.017zm8.39 4.28l.848.43c-.241.484-.568.92-.967 1.291a3.862 3.862 0 01-1.23.749 4.39 4.39 0 01-1.552.258 3.815 3.815 0 01-1.644-.28 3.736 3.736 0 01-1.357-.95 4.142 4.142 0 01-1.08-2.663 4.136 4.136 0 01.917-2.72 3.735 3.735 0 011.373-1.094 3.816 3.816 0 011.734-.355 3.953 3.953 0 011.786.362 3.861 3.861 0 011.418 1.122c.589.752.899 1.677.879 2.624h-7.067c-.011.815.304 1.6.879 2.19.267.278.59.498.949.646.358.148.745.221 1.134.214.399 0 .795-.07 1.169-.206a3.01 3.01 0 00.963-.542c.34-.318.629-.685.857-1.088l-.009.012zm0-2.06a3.238 3.238 0 00-.589-1.26 2.78 2.78 0 00-1.02-.762 3.184 3.184 0 00-1.318-.288 2.921 2.921 0 00-1.987.722 3.33 3.33 0 00-.918 1.588h5.832z" fill="#fff"/><path fill-rule="evenodd" clip-rule="evenodd" d="M46.04 63.794h1.074v-5.003h.607l3.866 5.003h1.328l-3.865-5.003c.901-.005 1.608-.121 2.12-.349a2.59 2.59 0 001.18-1.008 2.882 2.882 0 00.412-1.548 2.693 2.693 0 00-.6-1.778 2.766 2.766 0 00-1.555-.943c-.424-.098-1.233-.146-2.426-.146H46.04v10.775zm2.97-9.72c.736 0 1.263.063 1.58.19.316.125.585.347.769.633.194.292.296.635.292.986.005.356-.096.707-.289 1.007-.191.3-.474.53-.805.655-.344.137-.874.206-1.592.206l-1.851-.015v-3.663h1.895zm5.754 5.589c0 1.132.128 1.981.383 2.545.243.549.649 1.01 1.162 1.319.519.315 1.166.472 1.94.472.775 0 1.419-.157 1.933-.472.508-.309.91-.765 1.154-1.308.256-.557.384-1.385.384-2.483v-3.912h-1.045v3.721c0 .997-.051 1.649-.154 1.956a2.118 2.118 0 01-.823 1.088c-.43.285-.937.43-1.452.414a2.539 2.539 0 01-1.475-.425 2.09 2.09 0 01-.838-1.158c-.097-.341-.146-.966-.146-1.875v-3.721h-1.023v3.839zm11.014-4.044a2.151 2.151 0 00-1.562.6 2.013 2.013 0 00-.619 1.51c-.006.443.13.877.389 1.238.258.36.746.727 1.464 1.098.669.342 1.098.625 1.289.85.186.218.287.497.285.784a1.224 1.224 0 01-.432.93c-.285.263-.66.404-1.047.396-.586 0-1.14-.296-1.663-.886l-.643.732c.276.353.63.637 1.036.828.41.198.859.301 1.313.3a2.343 2.343 0 001.72-.681 2.25 2.25 0 00.688-1.663c.004-.45-.137-.89-.403-1.253-.273-.366-.79-.747-1.552-1.142-.625-.323-1.035-.604-1.23-.843a1.142 1.142 0 01-.293-.74 1.02 1.02 0 01.356-.769 1.21 1.21 0 01.853-.33c.523 0 1.057.267 1.604.799l.658-.681c-.742-.718-1.478-1.077-2.21-1.077zm5.81 0a2.151 2.151 0 00-1.563.6 2.013 2.013 0 00-.619 1.51c-.006.443.13.877.388 1.238.259.36.747.727 1.465 1.098.668.342 1.098.625 1.288.85.187.218.288.497.286.784a1.224 1.224 0 01-.432.93c-.285.263-.66.404-1.047.396-.586 0-1.14-.296-1.663-.886l-.643.732c.276.354.63.637 1.035.828.41.198.86.301 1.314.3a2.343 2.343 0 001.72-.681 2.247 2.247 0 00.688-1.663c.004-.45-.137-.89-.403-1.253-.273-.366-.79-.747-1.552-1.142-.625-.323-1.035-.604-1.23-.843a1.141 1.141 0 01-.293-.74 1.02 1.02 0 01.355-.769 1.21 1.21 0 01.854-.33c.522 0 1.057.267 1.604.799l.658-.681c-.742-.718-1.479-1.077-2.21-1.077zm3.786-2.828a.82.82 0 00-.247.6.844.844 0 00.84.843.84.84 0 00.84-.843.85.85 0 00-.844-.85.803.803 0 00-.589.25zm.082 11.003h1.023v-7.97h-1.023v7.97zm10.06-7.97v1.465a4.035 4.035 0 00-1.391-1.253 3.743 3.743 0 00-1.772-.417 3.922 3.922 0 00-2.9 1.223 4.04 4.04 0 00-1.206 2.945 4.123 4.123 0 001.195 2.985 4.028 4.028 0 004.632.831 4.385 4.385 0 001.443-1.179v1.37h1.008v-7.97h-1.008zm-.842 1.713c.606.62.909 1.39.909 2.312a3.286 3.286 0 01-.406 1.632c-.27.484-.671.882-1.156 1.149a3.188 3.188 0 01-1.591.424 3.016 3.016 0 01-1.558-.428 3.14 3.14 0 01-1.157-1.196 3.237 3.237 0 01-.004-3.22 3.09 3.09 0 012.726-1.602 3.003 3.003 0 012.237.929z" fill="#FEFEFE"/></svg>