<svg width="14" height="14" viewBox="0 0 14 14" fill="none" xmlns="http://www.w3.org/2000/svg">
<path d="M7.00079 0C5.14428 0 3.3638 0.737498 2.05105 2.05025C0.738291 3.36301 0.000793457 5.14348 0.000793457 7C0.000793457 8.85652 0.738291 10.637 2.05105 11.9497C3.3638 13.2625 5.14428 14 7.00079 14C8.85731 14 10.6378 13.2625 11.9505 11.9497C13.2633 10.637 14.0008 8.85652 14.0008 7C14.0008 5.14348 13.2633 3.36301 11.9505 2.05025C10.6378 0.737498 8.85731 0 7.00079 0V0ZM9.69191 9.29444C9.69191 10.4378 9.06968 11.8611 6.53413 12.95C6.76746 9.70667 4.57413 10.08 4.04524 9.06111C4.09341 8.6396 4.24689 8.23698 4.49156 7.89038C4.73622 7.54377 5.06419 7.26432 5.44524 7.07778C4.23826 6.87075 3.11262 6.33217 2.19413 5.52222C2.23302 5.88778 2.41113 6.22533 2.6919 6.46333C2.08361 6.23404 1.55803 5.82766 1.18302 5.29667C1.55384 4.07276 2.29549 2.99415 3.30555 2.20978C4.31562 1.42541 5.54429 0.973969 6.82191 0.917778C6.16857 1.99111 5.65524 4.13 6.82191 5.25C5.62413 5.44444 4.86968 3.88889 4.20857 4.50333C3.32968 5.32778 4.46524 6.45556 6.86857 6.89889C9.42746 7.35778 9.71524 8.12778 9.69191 9.29444ZM10.7341 6.18333C10.4852 5.32 11.2163 4.44889 12.0486 3.74111C12.5683 4.49028 12.8992 5.35403 13.0129 6.2587C13.1267 7.16338 13.02 8.08214 12.7019 8.93667C12.103 7.46667 11.0141 7.13222 10.7341 6.16V6.18333Z" fill="white"/>
</svg>
