<svg width="19" height="19" viewBox="0 0 19 19" fill="none" xmlns="http://www.w3.org/2000/svg">
<path d="M2.98304 5.19704C4.19144 5.19704 5.17104 4.21744 5.17104 3.00904C5.17104 1.80065 4.19144 0.821045 2.98304 0.821045C1.77464 0.821045 0.795044 1.80065 0.795044 3.00904C0.795044 4.21744 1.77464 5.19704 2.98304 5.19704Z" fill="white"/>
<path d="M7.23697 6.85493V18.9939H11.006V12.9909C11.006 11.4069 11.304 9.87293 13.268 9.87293C15.205 9.87293 15.229 11.6839 15.229 13.0909V18.9949H19V12.3379C19 9.06793 18.296 6.55493 14.474 6.55493C12.639 6.55493 11.409 7.56193 10.906 8.51493H10.855V6.85493H7.23697ZM1.09497 6.85493H4.86997V18.9939H1.09497V6.85493Z" fill="white"/>
</svg>
