<svg width="12" height="20" viewBox="0 0 12 20" fill="none" xmlns="http://www.w3.org/2000/svg">
<path d="M4.97417 14.011C3.44317 13.851 2.06217 13.471 0.880166 12.54C0.733166 12.424 0.581166 12.312 0.448166 12.183C-0.0698339 11.683 -0.121834 11.109 0.288166 10.519C0.638166 10.013 1.22617 9.87799 1.83717 10.169C1.95517 10.224 2.06717 10.295 2.17617 10.37C4.37917 11.894 7.40617 11.936 9.61717 10.439C9.83717 10.269 10.0712 10.131 10.3422 10.061C10.8702 9.92499 11.3622 10.12 11.6452 10.585C11.9692 11.115 11.9652 11.635 11.5662 12.046C10.9552 12.679 10.2192 13.136 9.40217 13.455C8.62917 13.757 7.78217 13.909 6.94517 14.009C7.07117 14.148 7.13117 14.216 7.21017 14.296C8.34717 15.446 9.49017 16.593 10.6242 17.747C11.0102 18.141 11.0912 18.628 10.8782 19.086C10.6452 19.586 10.1252 19.915 9.61417 19.88C9.29117 19.857 9.03917 19.695 8.81417 19.468C7.95617 18.598 7.08217 17.744 6.24117 16.858C5.99617 16.6 5.87817 16.649 5.66217 16.873C4.79917 17.768 3.92217 18.649 3.03817 19.526C2.64217 19.919 2.17017 19.99 1.71017 19.766C1.22217 19.526 0.910166 19.025 0.935166 18.52C0.951166 18.178 1.11817 17.918 1.35117 17.684C2.47717 16.552 3.59917 15.417 4.72217 14.284C4.79617 14.208 4.86617 14.128 4.97417 14.011Z" fill="white"/>
<path d="M5.90629 10.069C3.17429 10.059 0.934294 7.77899 0.949294 5.02299C0.965294 2.23699 3.20729 -0.00701419 5.96629 -1.41851e-05C8.73029 0.00698582 10.9493 2.28499 10.9363 5.09999C10.9213 7.84999 8.66629 10.078 5.90629 10.069ZM8.38929 5.02899C8.39114 4.70694 8.32932 4.38771 8.20738 4.08964C8.08545 3.79157 7.90581 3.52053 7.67878 3.29211C7.45176 3.0637 7.18183 2.8824 6.88451 2.75864C6.58719 2.63489 6.26834 2.57111 5.94629 2.57099C5.62122 2.57067 5.29933 2.63513 4.99945 2.76061C4.69956 2.88608 4.42768 3.07005 4.19968 3.30177C3.97169 3.53349 3.79215 3.80831 3.67155 4.11019C3.55095 4.41207 3.49171 4.73496 3.49729 5.05999C3.49768 5.38216 3.56179 5.70107 3.68592 5.99837C3.81006 6.29566 3.99177 6.56547 4.2206 6.79226C4.44943 7.01904 4.72086 7.19833 5.01926 7.31979C5.31765 7.44125 5.63713 7.50249 5.95929 7.49999C6.28146 7.49882 6.60019 7.43385 6.8971 7.30881C7.19401 7.18377 7.46321 7.00116 7.68915 6.7715C7.91508 6.54184 8.09328 6.2697 8.21345 5.97079C8.33363 5.67188 8.39339 5.35212 8.38929 5.02999V5.02899Z" fill="white"/>
</svg>
