<svg width="21" height="21" viewBox="0 0 21 21" fill="none" xmlns="http://www.w3.org/2000/svg">
<path d="M20.0652 3.20266L20.0331 3.1826L15.9741 1.18286L11.593 7.02428L13.6086 9.71196C13.5483 10.7255 13.1185 11.6818 12.4005 12.3998C11.6825 13.1178 10.7262 13.5476 9.71259 13.6079L7.02497 11.5923L1.18359 15.9733L3.16669 19.9984L3.18338 20.0324L3.20348 20.0644C3.30931 20.235 3.45702 20.3756 3.63255 20.4728C3.80808 20.5701 4.00559 20.6209 4.20628 20.6202H5.25366C7.27173 20.6202 9.27003 20.2228 11.1345 19.4505C12.9989 18.6782 14.693 17.5462 16.12 16.1192C17.547 14.6922 18.6789 12.9982 19.4512 11.1337C20.2235 9.26925 20.621 7.27095 20.621 5.25288V4.20546C20.6216 4.00477 20.5709 3.80726 20.4736 3.63173C20.3763 3.4562 20.2357 3.30849 20.0652 3.20266ZM19.121 5.25288C19.121 12.8994 12.9001 19.1202 5.25366 19.1202H4.40616L3.07931 16.4267L7.02525 13.4672L9.22214 15.1148H9.47213C10.9684 15.1131 12.403 14.518 13.461 13.4599C14.5191 12.4019 15.1142 10.9674 15.1159 9.47107V9.22108L13.4683 7.02424L16.4274 3.07853L19.121 4.40561V5.25288Z" fill="white" stroke="white" stroke-width="0.4"/>
</svg>
