<svg width="21" height="12" viewBox="0 0 21 12" fill="none" xmlns="http://www.w3.org/2000/svg">
<path d="M19.579 0.855011C19.719 0.390011 19.579 0.0490112 18.917 0.0490112H16.724C16.166 0.0490112 15.911 0.344012 15.771 0.668012C15.771 0.668012 14.656 3.38701 13.076 5.15001C12.566 5.66301 12.333 5.82501 12.055 5.82501C11.916 5.82501 11.714 5.66301 11.714 5.19801V0.855011C11.714 0.297011 11.553 0.0490112 11.088 0.0490112H7.642C7.294 0.0490112 7.084 0.307011 7.084 0.553011C7.084 1.08101 7.874 1.20301 7.955 2.69101V5.91901C7.955 6.62601 7.828 6.75501 7.548 6.75501C6.805 6.75501 4.997 4.02601 3.924 0.902011C3.715 0.295011 3.504 0.0500116 2.944 0.0500116H0.752C0.125 0.0500116 0 0.345012 0 0.669012C0 1.25101 0.743 4.13101 3.461 7.94001C5.273 10.541 7.824 11.951 10.148 11.951C11.541 11.951 11.713 11.638 11.713 11.098V9.13201C11.713 8.50601 11.846 8.38001 12.287 8.38001C12.611 8.38001 13.169 8.54401 14.47 9.79701C15.956 11.283 16.202 11.95 17.037 11.95H19.229C19.855 11.95 20.168 11.637 19.988 11.019C19.791 10.404 19.081 9.50901 18.139 8.45001C17.627 7.84601 16.862 7.19601 16.629 6.87101C16.304 6.45201 16.398 6.26701 16.629 5.89501C16.63 5.89601 19.301 2.13401 19.579 0.855011Z" fill="white"/>
</svg>
