<?xml version="1.0" encoding="utf-8"?><svg width="14" height="14" fill="none" xmlns="http://www.w3.org/2000/svg" viewBox="0 0 14 14"><path d="M7 0a7 7 0 100 14A7 7 0 007 0zm2.692 9.294c0 1.144-.622 2.567-3.158 3.656.233-3.243-1.96-2.87-2.489-3.889a2.528 2.528 0 011.4-1.983 6.603 6.603 0 01-3.25-1.556c.038.366.216.703.497.941a3.251 3.251 0 01-1.509-1.166A6.176 6.176 0 016.822.917c-.653 1.074-1.167 3.213 0 4.333-1.198.194-1.952-1.361-2.613-.747-.88.825.256 1.953 2.66 2.396 2.558.459 2.846 1.229 2.823 2.395zm1.042-3.11c-.249-.864.482-1.735 1.315-2.443a5.654 5.654 0 01.653 5.196c-.599-1.47-1.688-1.805-1.968-2.777v.023z" fill="#fff"/></svg>