<?xml version="1.0" encoding="utf-8"?><svg width="21" height="21" fill="none" xmlns="http://www.w3.org/2000/svg" viewBox="0 0 21 21"><path d="M20.065 3.203l-.032-.02-4.059-2-4.381 5.841 2.016 2.688a4.15 4.15 0 01-3.896 3.896l-2.688-2.016-5.841 4.381 1.983 4.025.016.034.02.032a1.175 1.175 0 001.003.556h1.048A15.367 15.367 0 0020.62 5.253V4.205a1.176 1.176 0 00-.556-1.002zm-.944 2.05c0 7.646-6.22 13.867-13.867 13.867h-.848L3.08 16.427l3.946-2.96 2.197 1.648h.25a5.65 5.65 0 005.644-5.644v-.25l-1.648-2.197 2.96-3.945 2.693 1.327v.847z" fill="#fff" stroke="#fff" stroke-width=".4"/></svg>