<?xml version="1.0" encoding="utf-8"?><svg width="20" height="16" fill="none" xmlns="http://www.w3.org/2000/svg" viewBox="0 0 20 16"><path d="M17.633 3.997c.013.175.013.349.013.523 0 5.325-4.053 11.461-11.46 11.461-2.282 0-4.402-.661-6.186-1.809.324.037.636.05.973.05a8.07 8.07 0 005.001-1.721 4.035 4.035 0 01-3.767-2.793c.249.037.499.062.761.062.361 0 .724-.05 1.061-.137A4.027 4.027 0 01.799 5.68v-.05c.537.299 1.16.486 1.82.511A4.022 4.022 0 01.823 2.787c0-.748.199-1.434.548-2.032A11.457 11.457 0 009.677 4.97c-.062-.3-.1-.611-.1-.923A4.026 4.026 0 0113.605.019c1.16 0 2.207.486 2.943 1.272a7.957 7.957 0 002.556-.973c-.3.93-.93 1.72-1.771 2.22a8.073 8.073 0 002.319-.624 8.646 8.646 0 01-2.019 2.083z" fill="#fff"/></svg>