<svg width="1107" height="1138" viewBox="0 0 1107 1138" fill="none" xmlns="http://www.w3.org/2000/svg"><g opacity=".2"><mask id="mask0" maskUnits="userSpaceOnUse" x="0" y="0" width="1107" height="1138"><path d="M645.639 107.971l-23.711 88.492c-51.391-10.059-104.211-9.771-155.236.848-46.113-41.565-101.671-71.704-161.936-87.85l-15.264 56.967c39.45 10.509 76.639 28.113 109.66 51.909-52.97 21.637-100.174 54.693-138.139 96.737-37.966 42.043-65.725 92.004-81.237 146.206l-56.626-15.173-3.616 13.495 56.626 15.173c-13.559 54.776-14.431 111.971-2.555 167.414 11.877 55.442 36.204 107.734 71.207 153.062-40.581 4.259-81.707 1.001-121.239-9.605l-15.235 56.856c60.29 16.164 123.515 17.766 184.225 4.667 38.735 34.85 84.173 61.745 133.58 79.066l-23.415 87.385 57.986 15.54 23.415-87.388c51.408 9.844 104.2 9.347 155.157-1.462 46.092 41.594 101.658 71.74 161.937 87.85l15.234-56.856c-39.415-10.525-76.56-28.158-109.518-51.99 53.075-21.716 100.389-54.831 138.486-96.927 38.098-42.096 66.017-92.109 81.718-146.387l56.627 15.173 3.616-13.495-56.627-15.173c13.637-54.722 14.54-111.888 2.644-167.292-11.896-55.404-36.289-107.635-71.384-152.852 40.299-4.095 81.113-.798 120.357 9.724l15.264-56.966c-60.279-16.269-123.506-18.081-184.304-5.281-38.694-34.74-84.091-61.505-133.442-78.673l23.504-87.717-57.759-15.477zm-38.768 144.684l-30.084 112.273c-10.048-30.911-24.069-60.485-41.724-88.004a455.971 455.971 0 0140.896-28.047 306.926 306.926 0 0130.912 3.778zm57.986 15.537a325.822 325.822 0 0129.732 12.709 458.496 458.496 0 0121.006 43.922c-29.263 14.997-56.404 33.622-80.762 55.421l30.024-112.052zm-112.513-20.426c-8.471 5.792-16.745 11.755-24.852 18-3.856-5.538-7.886-10.886-12.028-16.264a329.837 329.837 0 0136.94-1.957l-.06.221zm163.085 43.698a344.191 344.191 0 0130.683 19.129c-6.134 2.506-12.297 5.122-18.264 7.91-3.731-9.18-8.117-18.18-12.419-27.039zm-266.283-28.67a340.377 340.377 0 0132.699 41.957c-10.568 10.447-20.688 21.488-30.271 32.791l-97.964-26.249c28.881-21.18 61.15-37.561 95.536-48.499zm347.122 93.011c24.451 26.661 44.323 57.017 58.827 89.86l-97.738-26.188c-2.702-14.832-5.999-29.706-10.011-44.177a342.372 342.372 0 0148.922-19.495zm-61.634 26.165c2.97 11.111 5.572 22.241 7.661 33.471l-42.13-11.289a340.057 340.057 0 0134.469-22.182zm-245.116-65.085a326.867 326.867 0 0118.343 35.739l-41.338-11.076c7.365-8.46 15.153-16.687 22.995-24.663zm-150.146 5.412L441.3 349.609c-37.319 47.638-64.926 101.927-81.338 159.952l-122.087-32.713c17.586-60.396 53.101-114.123 102.063-154.399l-.566-.152zm117.217 31.409l58.099 15.567c22.314 59.352 26.208 123.652 11.19 184.745l-150.966-40.452c16.383-58.096 44.203-112.375 81.904-159.8l-.227-.06zm229.112 61.39l59.457 15.932c9.053 59.917 6.006 120.855-8.968 179.343l-152.099-40.755c17.592-60.393 53.106-114.118 102.063-154.399l-.453-.121zm73.841 19.786l101.928 27.311c22.299 59.354 26.194 123.651 11.19 184.745l-122.313-32.774c14.869-58.457 18.068-119.307 9.422-179.222l-.227-.06zm-525.509 55.4l122.88 32.925c-14.851 58.558-17.993 119.507-9.255 179.504l-102.495-27.463c-22.318-59.43-26.192-123.808-11.13-184.966zm137.036 36.719l150.967 40.451c-17.753 60.396-53.26 114.155-102.122 154.62l-57.307-15.355c-9.249-60.008-6.374-121.075 8.462-179.716zm209.179 56.049l152.326 40.815c-16.472 58.204-44.515 112.526-82.53 159.87l-58.665-15.719c-22.208-59.451-26.08-123.797-11.131-184.966zm166.256 44.548l122.54 32.834c-17.548 60.49-53.09 114.303-102.122 154.62l-101.928-27.311c37.456-47.658 65.199-101.991 81.737-160.082l-.227-.061zm-494.567 64.047l98.191 26.31c2.648 14.581 6.064 29.011 10.023 43.232a324.687 324.687 0 01-49.785 20.448c-24.331-26.722-44.069-57.122-58.429-89.99zm113.254 30.346l40.771 10.925a356.934 356.934 0 01-33.469 21.619c-2.833-10.717-5.238-21.676-7.302-32.544zm232.962 62.422l42.243 11.319c-7.537 8.65-15.385 17.1-23.483 25.125a340.117 340.117 0 01-18.76-36.444zm57.193 15.325l97.737 26.188c-28.991 21.398-61.432 37.939-96.024 48.961a335.467 335.467 0 01-32.473-41.897 437.11 437.11 0 0030.76-33.252zm-183.481-43.236l-30.231 112.827c-9.306-3.324-18.434-7.311-27.276-11.458a465.11 465.11 0 01-22.2-46.258c28.903-15.047 55.705-33.639 79.767-55.332l-.06.221zm57.838 16.091c10.144 30.846 24.171 60.373 41.754 87.893a454.062 454.062 0 01-40.926 28.158c-10.214-.84-20.565-2.073-30.882-3.889l30.054-112.162zm-149.882 45.199c4.232 10.026 8.864 19.921 13.638 29.737a371.13 371.13 0 01-32.902-21.265c6.562-2.746 12.982-5.413 19.264-8.472zm199.517 54.053c3.857 5.539 8.113 10.947 12.255 16.326a313.666 313.666 0 01-37.732 1.745c8.697-5.732 17.173-11.997 25.536-18.292l-.059.221z" fill="#C4C4C4"/></mask><g mask="url(#mask0)" stroke="#fff"><path d="M237.006-.087l883.634 236.769M235.572 5.264l883.638 236.769M234.135 10.615l883.635 236.769M232.701 15.966l883.639 236.769M231.268 21.318L1114.9 258.087M229.834 26.67l883.636 236.768M228.4 32.02l883.63 236.769M226.967 37.372L1110.6 274.14M225.533 42.723l883.637 236.769M224.098 48.075l883.632 236.769M222.664 53.425l883.636 236.77M221.23 58.777l883.64 236.769M219.797 64.128l883.633 236.769M218.363 69.48L1102 306.247M216.93 74.83l883.63 236.77M215.496 80.182l883.634 236.769M214.061 85.533l883.639 236.77M212.627 90.885l883.633 236.769M211.193 96.236l883.637 236.769M209.76 101.587l883.63 236.77M208.326 106.939l883.634 236.769M206.893 112.29l883.637 236.769M205.459 117.641L1089.09 354.41M204.025 122.993l883.635 236.769M202.592 128.344l883.638 236.769M201.156 133.695l883.634 236.769M199.723 139.047l883.637 236.769M198.289 144.398l883.631 236.769M196.855 149.749l883.635 236.769M195.422 155.1l883.638 236.769M193.988 160.452l883.632 236.769M192.553 165.803l883.637 236.769M191.119 171.154l883.631 236.769M189.686 176.506l883.634 236.769M188.252 181.857l883.638 236.769M186.818 187.208l883.632 236.769M185.385 192.56l883.635 236.769M183.951 197.911L1067.59 434.68M182.518 203.262l883.632 236.769M181.084 208.614l883.636 236.769M179.65 213.965l883.63 236.769M178.215 219.316l883.635 236.769M176.781 224.668l883.639 236.769M175.348 230.019l883.632 236.769M173.914 235.37l883.636 236.769M172.479 240.721L1056.11 477.49M171.045 246.073l883.635 236.769M169.611 251.424l883.639 236.769M168.178 256.775l883.632 236.769M166.744 262.127l883.636 236.769M165.311 267.478l883.639 236.769M163.877 272.829l883.633 236.769M162.443 278.18l883.637 236.77M161.01 283.532l883.63 236.769M159.576 288.883l883.634 236.769M158.143 294.234l883.637 236.77M156.709 299.586l883.631 236.769M155.275 304.937l883.635 236.769M153.84 310.288l883.63 236.769M152.406 315.639l883.634 236.77M150.969 320.991L1034.6 557.76M149.535 326.342l883.635 236.769M148.102 331.693l883.638 236.769M146.668 337.045L1030.3 573.814M145.234 342.396l883.636 236.769M143.801 347.747l883.639 236.769M142.367 353.099L1026 589.868M140.934 358.45l883.636 236.769M139.5 363.802l883.63 236.769M138.066 369.153L1021.7 605.922M136.633 374.504l883.637 236.769M135.199 379.855l883.631 236.77M133.766 385.207L1017.4 621.976M132.332 390.558l883.638 236.769M130.895 395.909l883.635 236.77M129.461 401.261L1013.1 638.03M128.027 406.612l883.633 236.769M126.594 411.963l883.636 236.769M125.16 417.314l883.63 236.77M123.727 422.666l883.633 236.769M122.293 428.017l883.637 236.769M120.859 433.368l883.631 236.77M119.426 438.72l883.634 236.769M117.992 444.071L1001.63 680.84M116.559 449.422l883.631 236.769M115.125 454.774L998.76 691.543M113.691 460.125l883.635 236.769M112.258 465.476l883.634 236.769M110.824 470.828l883.635 236.769M109.391 476.179l883.634 236.769M107.953 481.53l883.635 236.769M106.52 486.881L990.154 723.65M105.086 492.233L988.72 729.002M103.652 497.584l883.635 236.769M102.219 502.935l883.634 236.769M100.785 508.287L984.42 745.056M99.352 513.638l883.634 236.769M97.918 518.989l883.635 236.769M96.484 524.34L980.12 761.109M95.05 529.692l883.635 236.769M93.617 535.043l883.635 236.769M92.184 540.395l883.634 236.769M90.75 545.746l883.635 236.769M89.316 551.097l883.635 236.769M87.883 556.449l883.634 236.769M86.45 561.8l883.634 236.769M85.012 567.151L968.646 803.92M83.578 572.502l883.635 236.77M82.144 577.854L965.78 814.623M80.71 583.205l883.635 236.769M79.277 588.556l883.635 236.769M77.844 593.907l883.634 236.77M76.41 599.259l883.635 236.769M74.977 604.61L958.61 841.379M73.543 609.961l883.635 236.77M72.11 615.313l883.634 236.769M70.676 620.664L954.31 857.433M69.242 626.015l883.635 236.77M67.809 631.367l883.634 236.769M66.375 636.718L950.01 873.487M64.941 642.069l883.635 236.769M63.506 647.421L947.14 884.19M62.072 652.772l883.635 236.769M60.635 658.124l883.634 236.769M59.201 663.474l883.635 236.77M57.768 668.826l883.634 236.769M56.334 674.177l883.635 236.769M54.9 679.529l883.635 236.769M53.467 684.88L937.1 921.649M52.033 690.231L935.668 927M50.6 695.583l883.634 236.769M49.166 700.934l883.635 236.769M47.732 706.285l883.635 236.769M46.299 711.636l883.634 236.77M44.865 716.988L928.5 953.757M43.432 722.339l883.634 236.769M41.996 727.69l883.635 236.769M40.563 733.042l883.634 236.769M39.129 738.393l883.634 236.769M37.693 743.744l883.635 236.769M36.26 749.095l883.634 236.77M34.826 754.447l883.635 236.769M33.393 759.798l883.634 236.769M31.959 765.149l883.635 236.771M30.525 770.501L914.16 1007.27M29.092 775.852l883.634 236.768M27.658 781.203l883.635 236.767M26.225 786.555l883.634 236.765M24.791 791.906l883.635 236.774M23.357 797.257l883.635 236.773M21.922 802.608l883.634 236.772M20.488 807.96l883.635 236.77M19.055 813.311l883.634 236.769M17.621 818.662l883.635 236.768M16.188 824.014l883.634 236.766M14.752 829.365l883.634 236.765M13.318 834.716l883.635 236.774M11.885 840.068l883.634 236.772M10.451 845.419l883.635 236.771M9.018 850.77l883.634 236.77M7.584 856.122l883.635 236.768M6.15 861.473l883.635 236.767M4.717 866.824L888.35 1103.59M3.283 872.176l883.635 236.764M1.85 877.527L885.484 1114.3M.414 882.878L884.05 1119.65M-1.02 888.229L882.615 1125M-2.453 893.581L881.18 1130.35M-3.887 898.932L879.748 1135.7M-5.32 904.283l883.634 236.767M-6.754 909.635L876.881 1146.4M-8.188 914.986l883.635 236.774M-9.623 920.337L874.01 1157.11M-11.057 925.688l883.635 236.772M-12.49 931.04l883.634 236.77M-13.924 936.391l883.635 236.769"/></g></g></svg>