<?xml version="1.0" encoding="utf-8"?><svg viewBox="0 0 30 30" xmlns="http://www.w3.org/2000/svg" xmlns:xlink="http://www.w3.org/1999/xlink"><style>:root>svg{display:none}:root>svg:target{display:block}</style><svg fill="none" viewBox="0 0 8 30" id="arrow--long" xmlns="http://www.w3.org/2000/svg"><path d="M3.646 29.854a.5.5 0 00.708 0l3.182-3.182a.5.5 0 00-.708-.707L4 28.793l-2.828-2.828a.5.5 0 10-.708.707l3.182 3.182zM3.5 0v29.5h1V0h-1z" fill="#fff"/></svg><svg fill="none" viewBox="0 0 14 9" id="chevron" xmlns="http://www.w3.org/2000/svg"><path d="M1 1l6 6 6-6" stroke="#fff" stroke-opacity=".3" stroke-width="2"/></svg><svg fill="none" viewBox="0 0 14 14" id="earth" xmlns="http://www.w3.org/2000/svg"><path d="M7 0a7 7 0 100 14A7 7 0 007 0zm2.692 9.294c0 1.144-.622 2.567-3.158 3.656.233-3.243-1.96-2.87-2.489-3.889a2.528 2.528 0 011.4-1.983 6.603 6.603 0 01-3.25-1.556c.038.366.216.703.497.941a3.251 3.251 0 01-1.509-1.166A6.176 6.176 0 016.822.917c-.653 1.074-1.167 3.213 0 4.333-1.198.194-1.952-1.361-2.613-.747-.88.825.256 1.953 2.66 2.396 2.558.459 2.846 1.229 2.823 2.395zm1.042-3.11c-.249-.864.482-1.735 1.315-2.443a5.654 5.654 0 01.653 5.196c-.599-1.47-1.688-1.805-1.968-2.777v.023z" fill="#fff"/></svg><svg fill="none" viewBox="0 0 30 15" id="eye" xmlns="http://www.w3.org/2000/svg"><path d="M29 11.514c0-5.302-6.269-9.6-14-9.6-7.733 0-14 4.4-14 9.6" stroke="#fff" stroke-width="2"/><path d="M1 4.914c0 4.97 6.269 9 14 9 7.733 0 14-4.125 14-9" stroke="#fff" stroke-width="2"/><path d="M17.65 7.914c0 1.422-1.173 2.6-2.652 2.6-1.478 0-2.652-1.178-2.652-2.6 0-1.422 1.174-2.6 2.652-2.6 1.479 0 2.653 1.178 2.653 2.6z" stroke="#fff" stroke-width="2"/></svg><svg fill="none" viewBox="0 0 10 18" id="facebook" xmlns="http://www.w3.org/2000/svg"><path d="M6.397 17.997V9.8h2.765l.411-3.21H6.397V4.549c0-.926.258-1.56 1.587-1.56h1.684V.127C8.848.039 8.025-.003 7.201 0 4.757 0 3.079 1.492 3.079 4.23v2.356H.332v3.209h2.753v8.202h3.312z" fill="#fff"/></svg><svg fill="none" viewBox="0 0 20 20" id="instagram" xmlns="http://www.w3.org/2000/svg"><path d="M18.947 6.305a6.526 6.526 0 00-.42-2.216 4.609 4.609 0 00-2.632-2.633 6.605 6.605 0 00-2.186-.42C12.747.993 12.442.981 10 .981s-2.755 0-3.71.055a6.606 6.606 0 00-2.185.42 4.607 4.607 0 00-2.633 2.633 6.554 6.554 0 00-.419 2.185c-.043.963-.056 1.268-.056 3.71s0 2.754.056 3.71c.015.748.156 1.486.419 2.187a4.61 4.61 0 002.634 2.632 6.586 6.586 0 002.185.45c.963.043 1.268.056 3.71.056s2.755 0 3.71-.056a6.592 6.592 0 002.186-.419 4.617 4.617 0 002.633-2.633c.263-.7.404-1.438.419-2.187.043-.962.056-1.267.056-3.71-.002-2.442-.002-2.752-.058-3.709zm-8.953 8.297A4.622 4.622 0 015.37 9.979a4.622 4.622 0 114.623 4.623zM14.8 6.263a1.077 1.077 0 110-2.156 1.078 1.078 0 010 2.156z" fill="#fff"/><path d="M9.994 12.982a3.003 3.003 0 100-6.006 3.003 3.003 0 000 6.006z" fill="#fff"/></svg><svg fill="none" viewBox="0 0 19 19" id="linkedin" xmlns="http://www.w3.org/2000/svg"><path d="M2.983 5.197a2.188 2.188 0 100-4.376 2.188 2.188 0 000 4.376zM7.237 6.855v12.139h3.769V12.99c0-1.584.298-3.118 2.262-3.118 1.937 0 1.961 1.81 1.961 3.218v5.904H19v-6.657c0-3.27-.704-5.783-4.526-5.783-1.835 0-3.065 1.007-3.568 1.96h-.051v-1.66H7.237zm-6.142 0H4.87v12.139H1.095V6.854z" fill="#fff"/></svg><svg fill="none" viewBox="0 0 23 8" id="list-arrow" xmlns="http://www.w3.org/2000/svg"><path d="M22.854 4.354a.5.5 0 000-.708L19.672.464a.5.5 0 10-.707.708L21.793 4l-2.828 2.828a.5.5 0 10.707.708l3.182-3.182zM0 4.5h22.5v-1H0v1z" fill="#fff"/></svg><svg fill="none" viewBox="0 0 10 8" id="list-arrow-mobile" xmlns="http://www.w3.org/2000/svg"><path d="M9.854 4.354a.5.5 0 000-.708L6.672.464a.5.5 0 10-.708.708L8.793 4 5.964 6.828a.5.5 0 10.708.708l3.182-3.182zM0 4.5h9.5v-1H0v1z" fill="#fff"/></svg><svg fill="none" viewBox="0 0 12 20" id="ok" xmlns="http://www.w3.org/2000/svg"><path d="M4.974 14.011c-1.53-.16-2.912-.54-4.094-1.471-.147-.116-.299-.228-.432-.357-.518-.5-.57-1.074-.16-1.664.35-.506.938-.641 1.55-.35.117.055.23.126.338.201 2.203 1.524 5.23 1.566 7.441.069.22-.17.454-.308.725-.378.528-.136 1.02.059 1.303.524.324.53.32 1.05-.079 1.461-.61.633-1.347 1.09-2.164 1.409-.773.302-1.62.454-2.457.554.126.139.186.207.265.287 1.137 1.15 2.28 2.297 3.414 3.451.386.394.467.881.254 1.339-.233.5-.753.829-1.264.794-.323-.023-.575-.185-.8-.412-.858-.87-1.732-1.724-2.573-2.61-.245-.258-.363-.209-.579.015-.863.895-1.74 1.776-2.624 2.653-.396.393-.868.464-1.328.24-.488-.24-.8-.741-.775-1.246.016-.342.183-.602.416-.836 1.126-1.132 2.248-2.267 3.371-3.4.074-.076.144-.156.252-.273z" fill="#fff"/><path d="M5.906 10.069C3.174 10.059.934 7.779.95 5.023.965 2.237 3.207-.007 5.966 0c2.764.007 4.983 2.285 4.97 5.1-.015 2.75-2.27 4.978-5.03 4.969zm2.483-5.04A2.444 2.444 0 004.2 3.302a2.447 2.447 0 00-.702 1.758A2.443 2.443 0 005.96 7.5a2.439 2.439 0 002.43-2.47v-.001z" fill="#fff"/></svg><svg fill="none" viewBox="0 0 21 21" id="phone" xmlns="http://www.w3.org/2000/svg"><path d="M20.065 3.203l-.032-.02-4.059-2-4.381 5.841 2.016 2.688a4.15 4.15 0 01-3.896 3.896l-2.688-2.016-5.841 4.381 1.983 4.025.016.034.02.032a1.175 1.175 0 001.003.556h1.048A15.367 15.367 0 0020.62 5.253V4.205a1.176 1.176 0 00-.556-1.002zm-.944 2.05c0 7.646-6.22 13.867-13.867 13.867h-.848L3.08 16.427l3.946-2.96 2.197 1.648h.25a5.65 5.65 0 005.644-5.644v-.25l-1.648-2.197 2.96-3.945 2.693 1.327v.847z" fill="#fff" stroke="#fff" stroke-width=".4"/></svg><svg fill="none" viewBox="0 0 24 24" id="rotation" xmlns="http://www.w3.org/2000/svg"><path d="M7.52 21.48A10.487 10.487 0 011.55 13H.05C.56 19.16 5.71 24 12 24l.66-.03-3.81-3.81-1.33 1.32zm.89-6.52c-.19 0-.37-.03-.52-.08a1.07 1.07 0 01-.4-.24c-.11-.1-.2-.22-.26-.37-.06-.14-.09-.3-.09-.47h-1.3c0 .36.07.68.21.95.14.27.33.5.56.69.24.18.51.32.82.41.3.1.62.15.96.15.37 0 .72-.05 1.03-.15.32-.1.6-.25.83-.44.23-.19.42-.43.55-.72.13-.29.2-.61.2-.97 0-.19-.02-.38-.07-.56a1.672 1.672 0 00-.23-.51c-.1-.16-.24-.3-.4-.43-.17-.13-.37-.23-.61-.31.362-.161.67-.421.89-.75.1-.15.17-.3.22-.46.05-.16.07-.32.07-.48 0-.36-.06-.68-.18-.96a1.78 1.78 0 00-.51-.69c-.2-.19-.47-.33-.77-.43C9.1 8.05 8.76 8 8.39 8c-.36 0-.69.05-1 .16-.3.11-.57.26-.79.45-.21.19-.38.41-.51.67-.12.26-.18.54-.18.85h1.3c0-.17.03-.32.09-.45a.94.94 0 01.25-.34c.11-.09.23-.17.38-.22.15-.05.3-.08.48-.08.4 0 .7.1.89.31.19.2.29.49.29.86 0 .18-.03.34-.08.49a.87.87 0 01-.25.37c-.11.1-.25.18-.41.24-.16.06-.36.09-.58.09H7.5v1.03h.77c.22 0 .42.02.6.07s.33.13.45.23c.12.11.22.24.29.4.07.16.1.35.1.57 0 .41-.12.72-.35.93-.23.23-.55.33-.95.33zm8.55-5.92c-.32-.33-.7-.59-1.14-.77-.43-.18-.92-.27-1.46-.27H12v8h2.3c.55 0 1.06-.09 1.51-.27.45-.18.84-.43 1.16-.76.32-.33.57-.73.74-1.19.17-.47.26-.99.26-1.57v-.4c0-.58-.09-1.1-.26-1.57-.18-.47-.43-.87-.75-1.2zm-.39 3.16c0 .42-.05.79-.14 1.13-.1.33-.24.62-.43.85-.19.23-.43.41-.71.53-.29.12-.62.18-.99.18h-.91V9.12h.97c.72 0 1.27.23 1.64.69.38.46.57 1.12.57 1.99v.4zM12 0l-.66.03 3.81 3.81 1.33-1.33c3.27 1.55 5.61 4.72 5.96 8.48h1.5C23.44 4.84 18.29 0 12 0z" fill="#fff"/></svg><svg fill="none" viewBox="0 0 20 16" id="twitter" xmlns="http://www.w3.org/2000/svg"><path d="M17.633 3.997c.013.175.013.349.013.523 0 5.325-4.053 11.461-11.46 11.461-2.282 0-4.402-.661-6.186-1.809.324.037.636.05.973.05a8.07 8.07 0 005.001-1.721 4.035 4.035 0 01-3.767-2.793c.249.037.499.062.761.062.361 0 .724-.05 1.061-.137A4.027 4.027 0 01.799 5.68v-.05c.537.299 1.16.486 1.82.511A4.022 4.022 0 01.823 2.787c0-.748.199-1.434.548-2.032A11.457 11.457 0 009.677 4.97c-.062-.3-.1-.611-.1-.923A4.026 4.026 0 0113.605.019c1.16 0 2.207.486 2.943 1.272a7.957 7.957 0 002.556-.973c-.3.93-.93 1.72-1.771 2.22a8.073 8.073 0 002.319-.624 8.646 8.646 0 01-2.019 2.083z" fill="#fff"/></svg><svg fill="none" viewBox="0 0 21 12" id="vk" xmlns="http://www.w3.org/2000/svg"><path d="M19.579.855c.14-.465 0-.806-.662-.806h-2.193c-.558 0-.813.295-.953.619 0 0-1.115 2.719-2.695 4.482-.51.513-.743.675-1.021.675-.139 0-.341-.162-.341-.627V.855c0-.558-.161-.806-.626-.806H7.642c-.348 0-.558.258-.558.504 0 .528.79.65.871 2.138v3.228c0 .707-.127.836-.407.836-.743 0-2.551-2.729-3.624-5.853-.209-.607-.42-.852-.98-.852H.752C.125.05 0 .345 0 .669c0 .582.743 3.462 3.461 7.271 1.812 2.601 4.363 4.011 6.687 4.011 1.393 0 1.565-.313 1.565-.853V9.132c0-.626.133-.752.574-.752.324 0 .882.164 2.183 1.417 1.486 1.486 1.732 2.153 2.567 2.153h2.192c.626 0 .939-.313.759-.931-.197-.615-.907-1.51-1.849-2.569-.512-.604-1.277-1.254-1.51-1.579-.325-.419-.231-.604 0-.976.001.001 2.672-3.761 2.95-5.04z" fill="#fff"/></svg></svg>